<svg version="1.1" id="Layer_1" xmlns="http://www.w3.org/2000/svg" xmlns:xlink="http://www.w3.org/1999/xlink" x="0px" y="0px"
	 width="100%" viewBox="0 0 623 305" enable-background="new 0 0 623 305" xml:space="preserve">
<path fill="#FFFFFF" opacity="1.000000" stroke="none" 
	d="
 
M227.171188,270.375946 
	C227.163589,270.169769 227.155991,269.963623 227.249786,269.542816 
	C227.249786,269.542816 227.218765,269.307465 227.564911,268.648865 
	C227.676773,267.446381 227.788651,266.243866 227.962616,264.272705 
	C227.957428,263.501923 227.952255,262.731140 227.972321,261.499542 
	C227.972321,261.499542 227.950470,261.038544 227.979889,260.352600 
	C227.964615,259.895325 227.949341,259.438049 227.743866,258.282867 
	C224.978577,256.533081 222.386505,255.485092 221.081528,260.858124 
	C221.358261,268.615784 221.369781,276.398865 222.110184,284.112030 
	C222.281494,285.896576 224.872086,288.784851 226.471832,288.870209 
	C234.315857,289.288574 242.201202,288.931946 250.812607,288.883301 
	C252.225861,287.517670 254.749374,286.241913 254.868408,284.771484 
	C255.535828,276.526733 255.754593,268.234741 255.733841,259.959839 
	C255.731400,258.981995 253.337891,257.283386 252.039398,257.270538 
	C251.039871,257.260651 249.190155,259.341492 249.142746,260.548584 
	C248.835968,268.357880 248.920166,276.182526 247.972855,283.981964 
	C244.626740,284.014038 241.280624,284.046112 237.077652,284.024597 
	C235.071136,284.036255 233.064636,284.047913 230.335373,284.003784 
	C229.610718,283.990967 228.886047,283.978149 228.063919,283.235626 
	C228.006912,282.502319 227.949905,281.768982 227.967804,280.130219 
	C227.958252,277.404388 227.948715,274.678528 227.757156,271.517517 
	C227.595810,271.221497 227.350708,271.036285 227.019058,271.014923 
	C227.019058,271.014923 227.063126,270.985260 227.171188,270.375946 
M481.821899,236.431320 
	C481.821899,236.431320 482.275269,236.576447 481.603638,236.172516 
	C481.467743,236.395615 481.331818,236.618729 481.081085,237.342041 
	C484.580597,237.544876 488.086914,237.934799 491.574371,237.807098 
	C492.357422,237.778427 493.074219,235.939880 493.968597,234.124954 
	C494.330292,232.035629 494.375153,229.814606 495.168976,227.904892 
	C495.669769,226.700150 497.241913,225.219559 498.417175,225.142731 
	C503.194305,224.830460 508.003784,225.012817 513.423462,225.012817 
	C512.587402,228.393188 511.895416,231.190964 511.058624,234.489288 
	C511.097626,234.658554 511.136627,234.827805 511.025269,235.437424 
	C511.025269,235.437424 510.975647,235.900085 510.502167,236.089767 
	C510.654724,236.409561 510.807281,236.729370 511.001221,237.003143 
	C511.001221,237.003143 510.956848,237.043335 511.401764,237.778992 
	C514.452576,237.853226 517.511047,238.072281 520.549255,237.910355 
	C521.420837,237.863907 522.233643,236.716309 523.014343,236.033478 
	C523.014343,236.033478 523.070312,236.062180 523.747864,235.708603 
	C524.442261,232.790085 525.136658,229.871567 526.203430,226.271118 
	C528.585754,218.073502 530.968079,209.875900 533.368835,201.615021 
	C521.971680,199.750641 521.335022,200.107666 518.129639,209.804382 
	C517.720032,211.043457 517.646057,212.484161 516.946472,213.511292 
	C516.240967,214.547195 514.986389,215.823212 513.908875,215.884995 
	C509.341797,216.146805 504.751099,215.996033 499.587189,215.996033 
	C501.055145,210.877792 502.322601,206.458633 503.746948,201.492371 
	C499.509674,201.492371 495.631897,201.492371 491.422455,201.492371 
	C491.395172,201.550552 491.144897,201.940659 491.022308,202.367432 
	C487.995575,212.905853 484.982361,223.448120 481.537567,234.090851 
	C481.432220,234.473541 481.326874,234.856216 481.156921,235.904999 
	C481.333221,236.041672 481.509552,236.178329 481.821899,236.431320 
M367.645264,236.830093 
	C367.706787,236.208954 367.768311,235.587830 367.976868,234.574982 
	C367.976868,234.574982 368.011688,234.158035 368.631989,233.803543 
	C368.695709,232.881027 368.759430,231.958527 368.988190,230.273346 
	C369.688110,228.359009 370.451019,226.464935 371.075043,224.526184 
	C372.430969,220.313477 373.716034,216.077957 375.946625,211.986847 
	C379.757507,211.963989 383.575470,212.060028 387.374207,211.833435 
	C388.306030,211.777863 389.174988,210.668076 390.009552,210.010483 
	C390.009552,210.010483 390.046570,210.071213 390.624603,209.799591 
	C390.693787,209.189316 390.762939,208.579056 390.971405,207.574142 
	C390.971405,207.574142 391.012939,207.157715 391.685822,206.744064 
	C392.211212,205.003448 392.736603,203.262848 393.420288,200.997818 
	C381.193268,200.997818 369.875793,200.997757 358.558350,200.997849 
	C349.097412,200.997925 349.097412,200.998001 345.772430,211.619583 
	C349.233307,211.414398 352.167511,211.240433 355.953613,211.009308 
	C357.541992,211.009308 359.130371,211.009308 361.502350,211.009308 
	C359.204224,218.720200 357.100555,225.778656 354.297577,233.313141 
	C354.193695,234.738556 354.089783,236.163971 353.925354,238.420227 
	C358.596497,237.938187 362.830963,237.501205 367.008514,237.004272 
	C367.008514,237.004272 367.044983,237.078308 367.645264,236.830093 
M44.413948,288.731110 
	C47.775505,290.848846 50.035927,290.726074 49.992508,285.972748 
	C49.980499,284.658356 49.921707,283.344391 49.962349,281.091919 
	C49.974323,274.265961 50.083427,267.437469 49.905464,260.616455 
	C49.874756,259.439331 48.711403,257.414001 47.919476,257.336761 
	C46.681591,257.216095 45.314148,258.424164 43.456551,259.687531 
	C43.303165,265.465057 42.998600,271.243958 43.050728,277.019623 
	C43.084244,280.733368 43.642330,284.442383 44.413948,288.731110 
M585.304871,257.061127 
	C581.328430,257.696533 576.881409,257.835602 578.036743,264.767975 
	C578.684082,274.722595 580.075562,275.916412 589.988403,276.051758 
	C594.708984,276.116180 599.422424,276.702850 604.066345,277.892792 
	C604.062012,279.581390 604.057678,281.270020 603.741760,283.373962 
	C603.478760,283.597595 603.215820,283.821228 602.137573,284.007233 
	C600.777588,284.022552 599.417664,284.037903 597.187195,284.007355 
	C595.444092,284.018860 593.700989,284.030396 591.081055,284.005859 
	C588.737732,284.020752 586.394409,284.035675 583.583252,283.978241 
	C583.583252,283.978241 583.114868,283.909546 583.064941,283.102844 
	C582.094971,281.771973 581.125061,280.441071 580.155090,279.110168 
	C578.890869,280.094086 576.498840,281.162628 576.565125,282.046692 
	C576.803406,285.221924 577.155090,288.857056 581.736267,289.103363 
	C586.142761,289.340271 590.545776,289.641144 595.841736,289.959839 
	C607.291931,290.285614 607.830627,289.816895 608.773926,278.720032 
	C608.787598,278.558746 608.866760,278.403442 608.911743,278.244293 
	C610.174805,273.773499 607.912598,271.433319 603.853699,271.039032 
	C597.301392,270.402588 590.701172,270.259949 584.067871,269.049866 
	C583.262085,264.220673 585.340027,262.558228 590.106018,262.960480 
	C594.704651,263.348602 599.353943,263.137115 603.985962,263.809937 
	C604.020813,264.222198 604.055725,264.634430 604.222595,265.688934 
	C605.531433,265.802307 606.840271,265.915680 608.767517,265.775238 
	C608.495239,263.845734 608.222961,261.916260 607.484253,259.434753 
	C600.745789,255.046005 593.271301,257.564880 585.304871,257.061127 
M291.230316,260.100403 
	C290.875763,262.005371 290.521210,263.910339 290.155151,266.474121 
	C291.428436,275.308228 292.199951,275.982697 301.110535,276.000946 
	C306.046295,276.011078 310.982056,276.007233 315.964935,276.894073 
	C315.916290,279.254089 315.867645,281.614105 315.380951,283.996521 
	C315.380951,283.996521 314.945831,284.051575 314.085876,284.015717 
	C312.074951,284.049286 310.064026,284.082855 307.354706,284.070251 
	C306.888702,284.086060 306.422699,284.101837 305.501648,284.104706 
	C305.501648,284.104706 305.047028,284.127869 304.325348,284.078094 
	C302.200378,284.072449 300.075439,284.066772 297.509888,284.053772 
	C297.509888,284.053772 297.070251,284.084381 296.506378,284.059052 
	C296.318237,284.060608 296.130127,284.062134 295.489410,283.479279 
	C294.132874,278.028503 293.444122,277.817474 288.285309,281.365570 
	C288.951752,285.242920 289.032776,289.609436 295.397400,288.992767 
	C295.397400,288.992767 295.834900,289.033508 296.491089,289.528534 
	C298.977844,289.648743 301.464630,289.768982 304.868042,289.937683 
	C308.928070,289.596436 312.988098,289.255188 317.779663,288.856323 
	C322.631592,286.224854 323.910858,277.091156 319.617828,272.310150 
	C317.560852,271.538971 315.535065,270.221008 313.440887,270.101379 
	C307.677795,269.772125 301.886047,269.945068 296.032623,269.057159 
	C295.208099,264.214233 297.289093,262.525330 302.069916,262.938751 
	C306.678223,263.337219 311.334900,263.175598 315.988251,263.861481 
	C316.036682,264.259491 316.085114,264.657471 316.287659,265.728699 
	C318.967072,267.888763 320.900543,267.550140 321.834503,263.361664 
	C319.580414,261.559814 317.326324,259.757935 314.414185,257.424866 
	C308.650787,257.302216 302.877380,256.948029 297.129944,257.195740 
	C295.368927,257.271637 293.679016,258.997681 292.000000,259.999634 
	C292.000000,259.999634 291.965790,259.957947 291.230316,260.100403 
M546.869873,261.067841 
	C547.418579,258.016602 546.128479,256.879181 543.067078,256.934357 
	C535.072144,257.078552 527.073669,257.028046 518.396423,256.980103 
	C517.940430,256.979004 517.484375,256.977905 516.527344,257.123627 
	C516.354919,257.411835 516.182495,257.700043 515.986938,258.926819 
	C515.983154,267.586823 516.067932,276.248169 515.932861,284.906128 
	C515.877075,288.482300 517.211243,290.116791 520.879700,290.050873 
	C527.871765,289.925232 534.871399,290.103607 541.857544,289.860321 
	C543.164734,289.814819 544.423767,288.388184 545.705017,287.598907 
	C544.604675,286.682343 543.578064,285.096100 542.391113,284.965332 
	C537.290405,284.403381 532.145386,284.175598 527.010620,284.017975 
	C524.386597,283.937439 523.231323,283.041687 522.933228,280.247864 
	C522.282288,274.148468 526.413330,275.291504 530.004578,274.907379 
	C532.633057,274.626251 537.301514,276.841217 537.424133,272.729126 
	C537.549011,268.541351 532.829102,270.173920 530.154907,270.098633 
	C522.998779,269.897217 522.994690,270.042633 523.936096,262.931976 
	C527.057312,262.936066 530.184998,263.069733 533.298157,262.913391 
	C537.794617,262.687622 542.280579,262.251617 546.869873,261.067841 
M349.112946,259.761261 
	C350.340546,260.828613 351.457153,262.605286 352.818420,262.818207 
	C355.816467,263.287109 358.937958,262.966827 362.003235,263.883423 
	C362.031738,266.936584 362.060211,269.989746 362.032410,273.966278 
	C362.022919,277.080475 361.766327,280.220306 362.086304,283.300262 
	C362.319489,285.544952 363.313080,287.710632 364.730591,289.969269 
	C365.495056,289.956238 366.259552,289.943207 367.765015,289.682190 
	C368.177063,288.187378 368.922882,286.697174 368.943695,285.196930 
	C369.036926,278.484924 368.923523,271.770020 369.163177,264.351135 
	C372.475342,263.653107 375.844574,262.211151 379.084076,262.459839 
	C382.534454,262.724731 383.176758,261.676697 382.822815,258.314911 
	C382.575928,257.912018 382.329010,257.509155 381.347046,257.044769 
	C380.857025,257.078461 380.367004,257.112122 378.962402,257.093231 
	C370.499207,257.063782 362.034393,256.941803 353.574402,257.092743 
	C352.102753,257.118988 350.651672,258.296997 349.112946,259.761261 
M183.450562,259.489197 
	C174.557999,255.867310 165.240051,257.034088 156.029755,257.153839 
	C155.383514,257.162231 154.752014,258.302917 154.039673,259.862274 
	C154.016937,267.989136 154.093536,276.118011 153.928040,284.241974 
	C153.849533,288.096191 154.987045,290.305878 159.270584,289.983093 
	C164.861359,289.561829 170.462296,289.275635 176.858246,288.984802 
	C183.159210,288.675201 187.275208,285.699249 189.119217,280.119781 
	C191.690598,272.339630 189.734512,264.588989 183.450562,259.489197 
M469.071472,227.046021 
	C463.044495,227.090988 457.017517,227.135956 450.298431,227.020508 
	C451.174347,223.041992 451.787140,218.975906 453.066315,215.131577 
	C453.525177,213.752640 455.591370,212.908554 457.866760,211.977371 
	C465.351837,211.980774 472.837891,212.060333 480.321686,211.963257 
	C486.212128,211.886871 489.330841,207.071014 487.369232,201.020325 
	C475.632874,201.020325 463.827850,200.955429 452.025574,201.106812 
	C450.633667,201.124664 449.256927,202.329361 447.140198,203.015823 
	C445.782745,204.244751 443.769653,205.221512 443.182922,206.746902 
	C440.819763,212.890839 438.508484,219.110641 436.971405,225.493484 
	C436.169373,228.823929 434.287445,232.903473 438.302185,236.761475 
	C439.347992,237.173584 440.391235,237.936249 441.440002,237.943909 
	C452.756622,238.026306 464.074982,238.050797 475.389984,237.888672 
	C476.482391,237.873016 478.168030,236.712891 478.518250,235.712830 
	C479.435486,233.093491 479.765839,230.268661 480.396149,227.204681 
	C476.265228,227.204681 473.130249,227.204681 469.071472,227.046021 
M105.187691,279.505493 
	C105.359123,279.733582 105.574593,279.906952 106.238159,280.573761 
	C110.401695,283.861694 112.618492,290.084778 119.505600,289.765747 
	C119.699333,288.719849 119.919891,288.077271 119.922218,287.433929 
	C119.953995,278.622772 120.084663,269.807739 119.827713,261.004242 
	C119.788498,259.660889 117.921448,258.370911 116.899803,257.056244 
	C115.606247,258.367767 113.306458,259.601624 113.198204,261.004608 
	C112.790482,266.288879 113.096130,271.628204 112.624542,277.184357 
	C110.627258,275.824982 108.508011,274.612854 106.655632,273.078522 
	C101.177948,268.541351 96.031631,263.569305 90.313896,259.368774 
	C86.413216,256.503143 84.306595,257.829285 84.341484,262.484344 
	C84.394783,269.594940 84.947891,276.716461 84.661987,283.808075 
	C84.540817,286.813568 84.147560,289.504059 87.760956,289.716156 
	C91.548553,289.938507 90.931297,286.622955 90.966652,284.239014 
	C91.046242,278.873993 90.991623,273.506958 90.991623,267.453735 
	C95.250000,270.760529 98.614151,273.372955 102.126541,276.648193 
	C103.078880,277.478973 104.031219,278.309753 105.187691,279.505493 
M436.436218,257.472565 
	C432.300323,257.313354 428.158173,256.936157 424.030212,257.054352 
	C419.639343,257.180054 415.261902,257.775055 410.468079,258.869171 
	C410.317444,268.004089 410.044189,277.140564 410.162567,286.272003 
	C410.178375,287.489960 412.006165,289.300781 413.320953,289.667389 
	C414.187805,289.909058 415.845917,288.218628 416.747314,287.075897 
	C417.251984,286.436157 416.799103,285.117737 417.018555,284.160278 
	C417.468872,282.195251 417.820770,278.760498 418.676727,278.612518 
	C421.050598,278.202179 423.840851,278.744263 426.127808,279.711212 
	C428.268066,280.616089 429.974487,282.547241 432.225525,284.632782 
	C435.701477,289.951416 438.717407,291.014832 445.712280,288.493713 
	C443.496613,286.698578 441.782776,285.310028 439.718048,283.373688 
	C438.436218,281.922638 437.154358,280.471588 435.819763,278.960815 
	C442.243652,275.851044 444.514679,269.895203 442.590424,262.272491 
	C441.841766,259.306793 440.453827,257.495117 436.436218,257.472565 
M183.131912,225.696915 
	C183.095245,226.133026 183.058578,226.569138 182.246887,227.332397 
	C176.101685,227.604462 169.956482,227.876541 162.923325,228.187927 
	C165.817383,218.435028 168.288681,210.106873 170.988647,201.008026 
	C168.633972,201.008026 166.835114,201.212921 165.099426,200.968750 
	C160.318161,200.296173 157.951004,202.178070 156.785980,206.970032 
	C155.032257,214.183441 152.431366,221.186310 150.411880,228.341110 
	C148.824890,233.963608 151.845184,237.921951 157.631226,237.980301 
	C166.774933,238.072525 175.921249,238.112381 185.063095,237.965225 
	C186.489090,237.942261 188.210114,237.141983 189.264969,236.142212 
	C199.124283,226.797684 198.284012,213.302307 203.667023,201.012390 
	C200.514679,201.012390 198.527588,201.269196 196.631790,200.962250 
	C191.752396,200.172256 189.496201,202.261749 188.416245,206.953079 
	C187.010666,213.058960 184.990021,219.023239 183.131912,225.696915 
M406.377472,214.994568 
	C405.957275,214.357468 405.537048,213.720367 405.868896,212.697403 
	C414.257568,212.455704 422.644928,212.135681 431.035309,211.996231 
	C438.197540,211.877213 440.911469,208.458069 439.256104,201.027023 
	C427.536835,201.027023 415.763428,201.011276 403.990326,201.066650 
	C403.293365,201.069916 402.599091,201.644730 401.189270,202.018768 
	C398.583649,204.755859 395.116028,207.081680 393.569153,210.323898 
	C391.085541,215.529495 389.630768,221.279221 388.184570,226.912827 
	C386.445679,233.686676 388.970154,237.865814 394.747162,237.946701 
	C406.348663,238.109177 417.954041,237.995026 429.524414,237.995026 
	C430.077972,236.187546 430.549316,234.648453 431.670990,232.802399 
	C431.738098,231.869476 431.805206,230.936554 431.970276,229.487366 
	C431.929321,229.317078 431.888367,229.146774 431.934204,228.115158 
	C430.476715,227.755005 429.022614,227.099854 427.561218,227.083206 
	C418.929962,226.984756 410.296997,227.034714 401.648865,227.034714 
	C401.705719,225.822006 401.749664,224.884201 402.260010,223.273468 
	C410.434113,223.514633 418.607025,223.836884 426.782898,223.956711 
	C430.014496,224.004059 433.181519,223.510468 433.726471,218.586945 
	C433.726471,217.500504 433.726471,216.414078 433.726471,215.174179 
	C430.387238,215.174179 427.181976,215.174179 423.093445,215.029388 
	C418.036072,215.072083 412.978699,215.114777 407.495239,215.033585 
	C407.495239,215.033585 407.066589,215.148224 406.377472,214.994568 
M339.620056,202.318451 
	C338.275879,201.878265 336.931030,201.057831 335.587616,201.060150 
	C327.389343,201.074280 319.191467,201.275284 310.355194,201.147324 
	C304.664978,201.432846 300.381958,204.327271 298.515411,209.448395 
	C296.203308,215.791916 294.549347,222.426758 293.205627,229.056259 
	C292.035187,234.830917 294.886932,237.919464 300.786926,237.989059 
	C309.093475,238.087082 317.407837,238.177292 325.705902,237.892883 
	C327.814056,237.820648 330.422180,236.857864 331.864227,235.386581 
	C340.066528,227.017792 341.330231,216.174316 341.821198,205.184250 
	C341.852661,204.479858 340.673248,203.721359 339.620056,202.318451 
M341.983917,130.019318 
	C341.992157,119.059830 342.000397,108.100342 342.687408,96.806068 
	C351.375763,93.351952 360.064117,89.897842 369.198303,86.266479 
	C368.947968,89.132195 368.987000,91.641075 368.476227,94.032555 
	C365.942322,105.897186 360.019073,115.866859 351.309875,124.264412 
	C350.316620,125.222122 349.143860,126.632042 349.118835,127.854073 
	C348.927979,137.181564 348.489227,146.560837 349.327026,155.815430 
	C349.557281,158.358994 354.374847,162.819702 356.169739,162.407211 
	C359.993286,161.528519 363.703644,158.467117 366.440521,155.392426 
	C367.516144,154.184021 365.702148,150.558609 365.521637,148.011368 
	C365.431458,146.739441 365.658875,144.980042 366.470703,144.241928 
	C367.258118,143.526016 369.057434,143.490845 370.270660,143.770767 
	C372.410461,144.264450 374.442505,145.225037 376.482330,145.976410 
	C379.343903,142.746277 382.032257,139.848709 384.555450,136.813858 
	C386.162842,134.880554 385.778870,133.224808 383.954437,131.288956 
	C382.554749,129.803864 382.055359,127.470253 381.155548,125.514015 
	C383.312836,124.677742 385.427124,123.692108 387.641541,123.054161 
	C389.304596,122.575073 392.149902,123.115936 392.643127,122.209381 
	C394.492859,118.809517 396.199463,115.076454 396.662872,111.308777 
	C396.837708,109.887177 393.572876,107.927841 391.722412,106.399658 
	C389.180267,104.300278 389.251038,102.224571 392.206512,101.068810 
	C394.897888,100.016342 397.688873,99.218689 399.845001,98.504478 
	C400.252228,95.334137 400.503662,92.660904 400.956207,90.022141 
	C401.624756,86.123566 399.714355,83.535378 395.588654,83.032700 
	C394.467407,82.896088 393.330658,82.886566 392.049286,82.809601 
	C392.049286,81.411911 392.049286,80.266991 392.673645,78.810883 
	C395.195465,76.997993 397.717316,75.185104 400.239136,73.372215 
	C400.022827,72.965858 399.806549,72.559494 399.590240,72.153130 
	C396.386139,72.831787 393.182037,73.510452 389.396576,74.155983 
	C388.934357,74.499420 388.472168,74.842850 387.412445,75.070213 
	C386.932007,75.353210 386.451538,75.636208 385.121948,75.989555 
	C384.124512,76.017899 383.088531,75.879227 382.135315,76.099174 
	C362.027710,80.738762 341.915802,85.361221 321.835144,90.115379 
	C311.909882,92.465210 311.937500,92.581680 312.048462,103.082115 
	C312.050232,103.248428 312.055847,103.415253 312.046173,103.581055 
	C311.819397,107.471603 313.123993,108.803337 317.028137,107.000870 
	C321.089050,105.126022 325.333130,103.647919 330.069214,101.769409 
	C327.953339,115.588760 325.929291,128.808395 323.102417,141.974228 
	C321.665741,142.294998 320.238617,142.834244 318.790710,142.897415 
	C313.502747,143.128143 310.960815,145.441589 311.959869,150.999649 
	C312.194061,152.302582 311.743347,153.728607 311.607727,155.098007 
	C311.056946,155.284225 310.506195,155.470444 309.955414,155.656647 
	C308.968994,153.740891 307.378540,151.901505 307.124573,149.893112 
	C306.628754,145.972519 306.880127,141.957413 306.924500,137.051453 
	C306.916779,123.047920 306.909027,109.044380 306.970215,94.353348 
	C306.938080,93.894669 306.905945,93.435997 306.965973,92.051613 
	C306.743652,86.558052 306.521332,81.064491 306.750519,75.428200 
	C307.172668,74.967316 307.594849,74.506424 308.780518,73.997147 
	C310.952240,73.270607 313.156311,72.627853 315.290161,71.803307 
	C325.539551,67.842812 335.769928,63.833202 346.766235,59.901886 
	C347.412689,59.775478 348.092468,59.737831 348.700562,59.509308 
	C357.316498,56.271217 358.038483,56.500481 363.111206,64.158592 
	C363.569092,64.849869 363.939301,65.766464 364.597198,66.124001 
	C366.062958,66.920563 367.798035,68.147194 369.222626,67.923004 
	C373.791168,67.204048 378.320587,66.075508 382.747498,64.720703 
	C383.995026,64.338928 385.089294,62.780716 385.813141,61.510887 
	C387.127625,59.204865 387.597015,56.223995 389.332458,54.388210 
	C394.061066,49.386200 388.460144,47.160995 386.917389,43.912640 
	C385.474762,40.875118 383.226868,40.685997 380.333893,42.320747 
	C378.124329,43.569313 375.586700,44.237282 372.074188,45.597584 
	C372.783783,42.649551 372.956543,41.345551 373.409332,40.147358 
	C376.025421,33.224102 376.023041,33.272408 369.567688,29.262693 
	C366.401184,27.295830 363.765442,26.752239 361.064026,30.270029 
	C359.685547,32.065090 357.271179,33.064636 354.263184,35.165291 
	C354.263184,31.110830 354.378082,28.819603 354.214050,26.548521 
	C354.133698,25.435801 353.873596,23.847878 353.117859,23.348976 
	C346.790466,19.171726 340.922974,20.806192 337.292297,27.328875 
	C336.510498,28.733435 334.932953,29.695059 333.721954,30.860718 
	C332.820557,29.417105 331.899597,27.985264 331.022858,26.526840 
	C329.973145,24.780746 329.362183,22.059702 327.859558,21.426918 
	C322.829163,19.308500 315.388062,23.797291 313.749390,28.975262 
	C313.080505,31.088902 311.327759,32.859547 310.068115,34.786224 
	C308.343964,33.442741 306.675232,32.018723 304.877686,30.781921 
	C303.502533,29.835737 301.586304,28.112799 300.566772,28.493277 
	C296.869507,29.873055 293.050659,31.532528 290.120270,34.062408 
	C288.954498,35.068859 290.269257,38.662563 289.925201,41.000477 
	C289.667023,42.754887 288.980774,44.979439 287.700867,45.879795 
	C286.697083,46.585907 284.065369,46.139473 282.899994,45.241104 
	C279.064087,42.284081 276.034271,42.608753 273.128113,46.413773 
	C272.127106,47.724407 270.884399,48.892509 269.596252,49.932678 
	C267.238892,51.836250 267.059387,53.619175 268.701782,56.307869 
	C269.845734,58.180553 269.830353,60.761429 270.332855,63.025940 
	C268.069519,63.324951 265.589844,64.353416 263.591064,63.760544 
	C260.165009,62.744335 258.212677,63.622730 256.704376,66.587555 
	C255.809631,68.346306 254.870773,70.103554 253.750290,71.722008 
	C251.624496,74.792618 251.986206,76.900887 255.321045,79.022186 
	C256.756805,79.935478 258.298004,82.824997 257.820526,84.046028 
	C257.260834,85.477295 254.648941,86.588646 252.763000,86.929039 
	C246.879898,87.990906 245.008545,90.397240 246.000046,97.268242 
	C262.424103,91.081528 278.729584,84.939491 295.869965,78.482948 
	C295.194000,85.388817 294.622101,91.231277 293.251617,97.128815 
	C290.663147,98.180618 286.491882,98.598351 285.770844,100.398239 
	C283.184174,106.855164 281.764557,113.779610 279.621368,121.551201 
	C284.500916,119.734024 288.232697,118.344307 291.869324,117.778152 
	C290.806396,125.549309 289.743469,133.320465 288.616333,141.561005 
	C272.359070,134.863510 264.931610,122.247955 262.568634,105.442688 
	C256.442749,107.945900 251.246185,110.035492 246.088486,112.216995 
	C245.391983,112.511581 244.355835,113.297554 244.383850,113.806053 
	C244.609085,117.895500 244.521484,122.154160 245.809143,125.924026 
	C246.122833,126.842422 251.172424,126.138412 254.044205,126.194489 
	C254.367279,126.200790 254.688522,126.299355 255.078171,126.366837 
	C257.148193,130.919144 252.847366,132.372513 250.768814,134.681366 
	C246.610291,139.300644 251.251587,142.374985 252.709412,145.768234 
	C253.183884,146.872635 256.450928,147.171448 258.427277,147.133743 
	C260.743927,147.089569 263.045837,146.276428 265.354156,145.796844 
	C265.689270,146.245972 266.024384,146.695114 266.359497,147.144241 
	C264.650726,150.185699 262.941956,153.227158 260.779236,157.076614 
	C262.577301,158.578735 264.451782,160.230240 266.420410,161.760651 
	C267.843292,162.866806 269.391174,163.812103 270.980011,164.895020 
	C273.457611,163.294083 275.737549,161.635117 278.201782,160.321960 
	C279.158966,159.811874 280.637848,159.780594 281.666321,160.139999 
	C282.104187,160.293015 282.237457,162.044510 282.089203,163.004730 
	C281.720978,165.389496 281.111176,167.736954 280.536377,170.385132 
	C283.370087,171.389526 285.906677,172.137985 288.316193,173.180267 
	C291.425110,174.525116 293.739532,174.727875 295.693665,171.099030 
	C296.824097,168.999710 299.273285,167.610535 302.093018,165.014069 
	C302.538361,168.160233 302.619934,169.914734 303.072845,171.567459 
	C303.442352,172.915985 304.144043,175.172623 304.890717,175.253586 
	C309.151855,175.715622 313.676056,176.433441 317.673523,175.389526 
	C319.388794,174.941605 320.050110,170.457794 321.915649,167.781006 
	C324.794189,169.859482 327.725616,171.869263 330.537903,174.033798 
	C334.070312,176.752563 337.505127,179.598083 341.840332,183.077820 
	C341.840332,164.741409 341.840332,147.840073 341.983917,130.019318 
M270.453491,238.002151 
	C272.784149,238.000107 275.116638,238.056686 277.445099,237.984192 
	C282.814026,237.817017 288.378662,233.860428 289.847443,228.813675 
	C291.625793,222.703217 293.200684,216.527252 294.655701,210.330811 
	C296.020996,204.516357 293.175537,201.004974 287.245209,200.983612 
	C278.422150,200.951813 269.598816,201.009674 260.775604,201.016068 
	C252.157852,201.022324 252.157852,201.014999 251.560333,210.937317 
	C261.747833,210.937317 271.919342,210.937317 282.090881,210.937317 
	C282.255463,211.608383 282.420044,212.279434 282.584625,212.950500 
	C281.024384,213.628922 279.477570,214.855286 277.901672,214.893829 
	C269.749420,215.093185 261.586578,215.118408 253.434174,214.923401 
	C250.377457,214.850296 248.927643,216.024597 248.150482,218.830475 
	C246.823563,223.621307 245.535263,228.448196 243.770493,233.084778 
	C242.211914,237.179550 243.736206,238.101913 247.492722,238.040161 
	C254.815689,237.919754 262.141998,238.002914 270.453491,238.002151 
M209.027756,232.610825 
	C211.002655,226.288757 212.914398,219.945526 215.015869,213.665817 
	C215.358246,212.642700 216.504578,211.186264 217.338562,211.145599 
	C222.241425,210.906647 227.161835,211.028107 232.372818,211.028107 
	C231.357285,219.972336 224.099747,213.657852 220.738571,217.151978 
	C222.272415,223.649567 223.899017,230.540115 225.581070,237.665497 
	C229.896667,237.665497 234.138702,237.665497 239.065186,237.665497 
	C238.498169,235.184158 238.107040,233.147995 237.557602,231.155472 
	C236.954590,228.968719 236.205688,226.822205 235.544281,224.733673 
	C242.807083,221.030563 243.532471,220.040756 246.266388,210.444199 
	C247.687592,205.455490 244.583405,201.124313 239.353836,201.025879 
	C233.361099,200.913040 227.363708,200.896957 221.370743,200.991562 
	C216.407166,201.069901 210.271469,199.677948 206.830460,202.068573 
	C203.664536,204.268097 203.303238,210.612640 201.877884,215.184647 
	C199.587677,222.530762 197.438736,229.920914 195.014297,238.012756 
	C198.039581,238.012756 200.189026,237.835236 202.297867,238.052200 
	C205.937317,238.426620 208.516251,237.551605 209.027756,232.610825 
M109.498596,207.017487 
	C108.476089,209.940048 109.700455,211.006195 112.583839,210.931091 
	C115.866714,210.845551 119.153534,210.911316 123.500465,210.911316 
	C120.846085,220.318665 118.459892,228.775558 115.863083,237.978867 
	C119.277519,237.978867 121.911758,237.862381 124.531372,238.008453 
	C127.782143,238.189713 129.648529,237.411102 130.380402,233.648880 
	C131.323059,228.803024 133.259476,224.149307 134.784241,219.418121 
	C137.511002,210.957245 137.516129,210.958908 146.482834,210.970566 
	C153.075195,210.979141 155.112396,208.519867 154.207245,200.981918 
	C141.488998,200.981918 128.691376,201.105942 115.898682,200.908905 
	C111.885399,200.847076 109.966057,202.325989 109.498596,207.017487 
M481.963501,286.016754 
	C481.971497,277.724152 481.951569,269.431366 482.004395,261.139069 
	C482.020355,258.632385 481.392487,256.987823 478.429230,256.981293 
	C475.366730,256.974518 474.958344,258.799988 474.970245,261.217834 
	C475.010284,269.344482 474.873932,277.475220 475.123627,285.594604 
	C475.167450,287.018616 476.747498,288.395386 477.618073,289.793976 
	C479.043762,288.828339 480.469482,287.862732 481.963501,286.016754 
z"/>
<path fill="#FFFFFF" opacity="1.000000" stroke="none" 
	d="
M321.190308,167.807678 
	C320.050110,170.457794 319.388794,174.941605 317.673523,175.389526 
	C313.676056,176.433441 309.151855,175.715622 304.890717,175.253586 
	C304.144043,175.172623 303.442352,172.915985 303.072845,171.567459 
	C302.619934,169.914734 302.538361,168.160233 302.093018,165.014069 
	C299.273285,167.610535 296.824097,168.999710 295.693665,171.099030 
	C293.739532,174.727875 291.425110,174.525116 288.316193,173.180267 
	C285.906677,172.137985 283.370087,171.389526 280.536377,170.385132 
	C281.111176,167.736954 281.720978,165.389496 282.089203,163.004730 
	C282.237457,162.044510 282.104187,160.293015 281.666321,160.139999 
	C280.637848,159.780594 279.158966,159.811874 278.201782,160.321960 
	C275.737549,161.635117 273.457611,163.294083 270.980011,164.895020 
	C269.391174,163.812103 267.843292,162.866806 266.420410,161.760651 
	C264.451782,160.230240 262.577301,158.578735 260.779236,157.076614 
	C262.941956,153.227158 264.650726,150.185699 266.359497,147.144241 
	C266.024384,146.695114 265.689270,146.245972 265.354156,145.796844 
	C263.045837,146.276428 260.743927,147.089569 258.427277,147.133743 
	C256.450928,147.171448 253.183884,146.872635 252.709412,145.768234 
	C251.251587,142.374985 246.610291,139.300644 250.768814,134.681366 
	C252.847366,132.372513 257.148193,130.919144 255.078171,126.366837 
	C254.688522,126.299355 254.367279,126.200790 254.044205,126.194489 
	C251.172424,126.138412 246.122833,126.842422 245.809143,125.924026 
	C244.521484,122.154160 244.609085,117.895500 244.383850,113.806053 
	C244.355835,113.297554 245.391983,112.511581 246.088486,112.216995 
	C251.246185,110.035492 256.442749,107.945900 262.568634,105.442688 
	C264.931610,122.247955 272.359070,134.863510 288.616333,141.561005 
	C289.743469,133.320465 290.806396,125.549309 292.049622,116.997437 
	C292.836700,109.835724 293.443481,103.454727 294.050232,97.073730 
	C294.622101,91.231277 295.194000,85.388817 295.869965,78.482948 
	C278.729584,84.939491 262.424103,91.081528 246.000046,97.268242 
	C245.008545,90.397240 246.879898,87.990906 252.763000,86.929039 
	C254.648941,86.588646 257.260834,85.477295 257.820526,84.046028 
	C258.298004,82.824997 256.756805,79.935478 255.321045,79.022186 
	C251.986206,76.900887 251.624496,74.792618 253.750290,71.722008 
	C254.870773,70.103554 255.809631,68.346306 256.704376,66.587555 
	C258.212677,63.622730 260.165009,62.744335 263.591064,63.760544 
	C265.589844,64.353416 268.069519,63.324951 270.332825,63.025940 
	C269.830353,60.761429 269.845734,58.180553 268.701782,56.307869 
	C267.059387,53.619175 267.238892,51.836250 269.596252,49.932678 
	C270.884399,48.892509 272.127106,47.724407 273.128113,46.413773 
	C276.034271,42.608753 279.064087,42.284081 282.899994,45.241104 
	C284.065369,46.139473 286.697083,46.585907 287.700867,45.879795 
	C288.980774,44.979439 289.667023,42.754887 289.925201,41.000477 
	C290.269257,38.662563 288.954498,35.068859 290.120270,34.062408 
	C293.050659,31.532528 296.869507,29.873055 300.566772,28.493277 
	C301.586304,28.112799 303.502533,29.835737 304.877686,30.781921 
	C306.675232,32.018723 308.343964,33.442741 310.068115,34.786232 
	C311.327759,32.859547 313.080505,31.088902 313.749390,28.975262 
	C315.388062,23.797291 322.829163,19.308500 327.859558,21.426918 
	C329.362183,22.059702 329.973145,24.780746 331.022858,26.526840 
	C331.899597,27.985264 332.820557,29.417105 333.721954,30.860714 
	C334.932953,29.695059 336.510498,28.733435 337.292297,27.328875 
	C340.922974,20.806192 346.790466,19.171726 353.117859,23.348976 
	C353.873596,23.847878 354.133698,25.435801 354.214050,26.548521 
	C354.378082,28.819603 354.263184,31.110830 354.263184,35.165291 
	C357.271179,33.064636 359.685547,32.065090 361.064026,30.270029 
	C363.765442,26.752239 366.401184,27.295830 369.567688,29.262693 
	C376.023041,33.272408 376.025421,33.224102 373.409332,40.147358 
	C372.956543,41.345551 372.783783,42.649551 372.074188,45.597584 
	C375.586700,44.237282 378.124329,43.569313 380.333893,42.320747 
	C383.226868,40.685997 385.474762,40.875118 386.917389,43.912640 
	C388.460144,47.160995 394.061066,49.386200 389.332458,54.388210 
	C387.597015,56.223995 387.127625,59.204865 385.813141,61.510887 
	C385.089294,62.780716 383.995026,64.338928 382.747498,64.720703 
	C378.320587,66.075508 373.791168,67.204048 369.222626,67.923004 
	C367.798035,68.147194 366.062958,66.920563 364.597198,66.124001 
	C363.939301,65.766464 363.569092,64.849869 363.111206,64.158592 
	C358.038483,56.500481 357.316498,56.271217 348.700562,59.509308 
	C348.092468,59.737831 347.412689,59.775478 346.322510,59.565041 
	C345.592743,58.221882 345.306702,57.215561 345.414001,56.136295 
	C348.255157,55.551022 350.703003,55.038700 353.588715,54.434738 
	C332.662842,37.636654 295.437164,47.880840 279.379791,68.596146 
	C279.149017,69.033112 279.097290,69.363785 279.045532,69.694458 
	C279.390259,69.496277 279.734955,69.298088 280.498535,69.075043 
	C282.220978,68.882278 283.537140,68.780525 284.826355,68.536423 
	C300.475250,65.573463 316.120178,62.589531 331.899109,59.911224 
	C330.807465,61.846256 329.917999,64.224236 328.287720,64.959457 
	C325.013214,66.436134 321.158417,66.618950 317.870636,68.075165 
	C314.387848,69.617729 311.285522,72.019211 308.017029,74.045547 
	C307.594849,74.506424 307.172668,74.967316 306.283478,75.890205 
	C305.025879,81.966614 303.369843,87.636063 306.873840,92.977325 
	C306.905945,93.435997 306.938080,93.894669 306.643036,94.938370 
	C305.877655,97.408279 305.090790,99.287697 305.061096,101.179016 
	C304.925110,109.832977 304.906036,118.491829 305.046600,127.145638 
	C305.105408,130.767181 305.664612,134.380585 305.941406,138.028076 
	C305.886444,138.058472 306.002533,138.003326 306.207458,137.997925 
	C306.412354,137.992508 306.822144,137.981445 306.822144,137.981445 
	C306.880127,141.957413 306.628754,145.972519 307.124573,149.893112 
	C307.378540,151.901505 308.968994,153.740891 309.955414,155.656647 
	C310.506195,155.470444 311.056946,155.284225 311.607727,155.098007 
	C311.743347,153.728607 312.194061,152.302582 311.959869,150.999649 
	C310.960815,145.441589 313.502747,143.128143 318.790710,142.897415 
	C320.238617,142.834244 321.665741,142.294998 323.621155,142.422974 
	C323.156677,151.183716 322.173492,159.495697 321.190308,167.807678 
z"/>
<path fill="#4EB6D7" opacity="1.000000" stroke="none" 
	d="
M321.552979,167.794342 
	C322.173492,159.495697 323.156677,151.183716 324.022552,142.449890 
	C325.929291,128.808395 327.953339,115.588760 330.069214,101.769409 
	C325.333130,103.647919 321.089050,105.126022 317.028137,107.000870 
	C313.123993,108.803337 311.819397,107.471603 312.046173,103.581055 
	C312.055847,103.415253 312.050232,103.248428 312.048462,103.082115 
	C311.937500,92.581680 311.909882,92.465210 321.835144,90.115379 
	C341.915802,85.361221 362.027710,80.738762 382.135315,76.099174 
	C383.088531,75.879227 384.124512,76.017899 385.730774,76.099533 
	C386.896362,75.868431 387.453156,75.527359 388.009949,75.186279 
	C388.472168,74.842850 388.934357,74.499420 389.718048,74.511475 
	C390.709442,76.285339 391.379364,77.703697 392.049316,79.122070 
	C392.049286,80.266991 392.049286,81.411911 392.049286,82.809601 
	C393.330658,82.886566 394.467407,82.896088 395.588654,83.032700 
	C399.714355,83.535378 401.624756,86.123566 400.956207,90.022141 
	C400.503662,92.660904 400.252228,95.334137 399.845001,98.504478 
	C397.688873,99.218689 394.897888,100.016342 392.206512,101.068810 
	C389.251038,102.224571 389.180267,104.300278 391.722412,106.399658 
	C393.572876,107.927841 396.837708,109.887177 396.662872,111.308777 
	C396.199463,115.076454 394.492859,118.809517 392.643127,122.209381 
	C392.149902,123.115936 389.304596,122.575073 387.641541,123.054161 
	C385.427124,123.692108 383.312836,124.677742 381.155548,125.514015 
	C382.055359,127.470253 382.554749,129.803864 383.954437,131.288956 
	C385.778870,133.224808 386.162842,134.880554 384.555450,136.813858 
	C382.032257,139.848709 379.343903,142.746277 376.482330,145.976410 
	C374.442505,145.225037 372.410461,144.264450 370.270660,143.770767 
	C369.057434,143.490845 367.258118,143.526016 366.470703,144.241928 
	C365.658875,144.980042 365.431458,146.739441 365.521637,148.011368 
	C365.702148,150.558609 367.516144,154.184021 366.440521,155.392426 
	C363.703644,158.467117 359.993286,161.528519 356.169739,162.407211 
	C354.374847,162.819702 349.557281,158.358994 349.327026,155.815430 
	C348.489227,146.560837 348.927979,137.181564 349.118835,127.854073 
	C349.143860,126.632042 350.316620,125.222122 351.309875,124.264412 
	C360.019073,115.866859 365.942322,105.897186 368.476227,94.032555 
	C368.987000,91.641075 368.947968,89.132195 369.198303,86.266479 
	C360.064117,89.897842 351.375763,93.351952 342.045715,97.246658 
	C341.281830,104.074745 341.025757,110.463432 341.081879,116.849373 
	C341.123138,121.547684 341.572693,126.242409 341.840332,130.938736 
	C341.840332,147.840073 341.840332,164.741409 341.840332,183.077820 
	C337.505127,179.598083 334.070312,176.752563 330.537903,174.033798 
	C327.725616,171.869263 324.794189,169.859482 321.552979,167.794342 
M339.761505,141.684219 
	C339.629639,137.024658 341.260254,132.104721 337.259949,127.868645 
	C336.235352,132.964233 335.673767,138.122787 336.453705,143.069855 
	C336.895538,145.872391 338.709839,144.055817 339.761505,141.684219 
z"/>
<path fill="#FFFFFF" opacity="1.000000" stroke="none" 
	d="
M269.960205,238.001953 
	C262.141998,238.002914 254.815689,237.919754 247.492722,238.040161 
	C243.736206,238.101913 242.211914,237.179550 243.770493,233.084778 
	C245.535263,228.448196 246.823563,223.621307 248.150482,218.830475 
	C248.927643,216.024597 250.377457,214.850296 253.434174,214.923401 
	C261.586578,215.118408 269.749420,215.093185 277.901672,214.893829 
	C279.477570,214.855286 281.024384,213.628922 282.584625,212.950500 
	C282.420044,212.279434 282.255463,211.608383 282.090881,210.937317 
	C271.919342,210.937317 261.747833,210.937317 251.560333,210.937317 
	C252.157852,201.014999 252.157852,201.022324 260.775604,201.016068 
	C269.598816,201.009674 278.422150,200.951813 287.245209,200.983612 
	C293.175537,201.004974 296.020996,204.516357 294.655701,210.330811 
	C293.200684,216.527252 291.625793,222.703217 289.847443,228.813675 
	C288.378662,233.860428 282.814026,237.817017 277.445099,237.984192 
	C275.116638,238.056686 272.784149,238.000107 269.960205,238.001953 
M261.811523,223.002930 
	C259.962555,223.836914 258.113556,224.670883 256.264587,225.504868 
	C258.213501,226.353668 260.105804,227.716064 262.123718,227.938385 
	C265.710144,228.333481 269.376923,227.925232 273.002045,228.063675 
	C276.405121,228.193634 277.716888,226.767944 277.165771,223.001846 
	C272.267456,223.001846 267.503876,223.001846 261.811523,223.002930 
z"/>
<path fill="#FFFFFF" opacity="1.000000" stroke="none" 
	d="
M208.976257,233.017975 
	C208.516251,237.551605 205.937317,238.426620 202.297867,238.052200 
	C200.189026,237.835236 198.039581,238.012756 195.014297,238.012756 
	C197.438736,229.920914 199.587677,222.530762 201.877884,215.184647 
	C203.303238,210.612640 203.664536,204.268097 206.830460,202.068573 
	C210.271469,199.677948 216.407166,201.069901 221.370743,200.991562 
	C227.363708,200.896957 233.361099,200.913040 239.353836,201.025879 
	C244.583405,201.124313 247.687592,205.455490 246.266388,210.444199 
	C243.532471,220.040756 242.807083,221.030563 235.544281,224.733673 
	C236.205688,226.822205 236.954590,228.968719 237.557602,231.155472 
	C238.107040,233.147995 238.498169,235.184158 239.065186,237.665497 
	C234.138702,237.665497 229.896667,237.665497 225.581070,237.665497 
	C223.899017,230.540115 222.272415,223.649567 220.738571,217.151978 
	C224.099747,213.657852 231.357285,219.972336 232.372818,211.028107 
	C227.161835,211.028107 222.241425,210.906647 217.338562,211.145599 
	C216.504578,211.186264 215.358246,212.642700 215.015869,213.665817 
	C212.914398,219.945526 211.002655,226.288757 208.976257,233.017975 
z"/>
<path fill="#FFFFFF" opacity="1.000000" stroke="none" 
	d="
M340.057129,202.988037 
	C340.673248,203.721359 341.852661,204.479858 341.821198,205.184250 
	C341.330231,216.174316 340.066528,227.017792 331.864227,235.386581 
	C330.422180,236.857864 327.814056,237.820648 325.705902,237.892883 
	C317.407837,238.177292 309.093475,238.087082 300.786926,237.989059 
	C294.886932,237.919464 292.035187,234.830917 293.205627,229.056259 
	C294.549347,222.426758 296.203308,215.791916 298.515411,209.448395 
	C300.381958,204.327271 304.664978,201.432846 310.971863,201.593018 
	C313.331482,202.357178 315.071228,202.928391 316.817963,202.950607 
	C324.563263,203.049118 332.310547,202.990082 340.057129,202.988037 
M310.013428,212.923691 
	C308.822876,217.425919 307.632355,221.928131 306.305023,226.947662 
	C312.176270,226.947662 317.439423,227.084702 322.684570,226.838531 
	C323.809296,226.785751 325.515747,225.549973 325.844696,224.508652 
	C327.157166,220.354111 328.031586,216.061203 329.266296,211.218201 
	C328.793610,210.522964 328.339142,209.238632 327.845490,209.223373 
	C322.765686,209.066437 317.671600,208.968460 312.602570,209.243103 
	C311.706390,209.291672 310.907379,211.133438 310.013428,212.923691 
z"/>
<path fill="#4EB6D8" opacity="1.000000" stroke="none" 
	d="
M431.847382,228.976456 
	C431.888367,229.146774 431.929321,229.317078 431.738403,230.018539 
	C431.344604,231.402924 431.182648,232.256149 431.020691,233.109360 
	C430.549316,234.648453 430.077972,236.187546 429.524414,237.995026 
	C417.954041,237.995026 406.348663,238.109177 394.747162,237.946701 
	C388.970154,237.865814 386.445679,233.686676 388.184570,226.912827 
	C389.630768,221.279221 391.085541,215.529495 393.569153,210.323898 
	C395.116028,207.081680 398.583649,204.755859 402.020630,201.995377 
	C409.311310,201.983856 415.795563,201.650208 422.222168,202.114639 
	C427.569183,202.501022 434.321045,201.338425 435.021881,210.022293 
	C426.473083,210.022293 417.724792,209.960922 408.978729,210.072754 
	C407.172272,210.095856 404.203857,209.287689 405.116852,213.083267 
	C405.537048,213.720367 405.957275,214.357468 406.820129,215.141129 
	C407.262787,215.287689 407.608276,215.324417 407.608276,215.324417 
	C407.608276,215.324417 407.921326,215.157471 407.921326,215.157471 
	C412.978699,215.114777 418.036072,215.072083 423.539978,215.494720 
	C424.581238,217.701691 425.175964,219.443344 425.770691,221.184967 
	C427.844849,220.069824 429.919006,218.954666 432.053223,217.807220 
	C432.237701,218.035690 432.647369,218.543106 433.057068,219.050537 
	C433.181519,223.510468 430.014496,224.004059 426.782898,223.956711 
	C418.607025,223.836884 410.434113,223.514633 401.725006,223.789703 
	C398.670105,228.147415 401.066101,228.916702 404.212311,228.939865 
	C413.423584,229.007675 422.635651,228.971741 431.847382,228.976456 
z"/>
<path fill="#4EB6D7" opacity="1.000000" stroke="none" 
	d="
M481.966705,233.989716 
	C484.982361,223.448120 487.995575,212.905853 491.022308,202.367432 
	C491.144897,201.940659 491.395172,201.550552 491.422455,201.492371 
	C495.631897,201.492371 499.509674,201.492371 503.746948,201.492371 
	C502.322601,206.458633 501.055145,210.877792 499.587189,215.996033 
	C504.751099,215.996033 509.341797,216.146805 513.908875,215.884995 
	C514.986389,215.823212 516.240967,214.547195 516.946472,213.511292 
	C517.646057,212.484161 517.720032,211.043457 518.129639,209.804382 
	C521.335022,200.107666 521.971680,199.750641 533.368835,201.615021 
	C530.968079,209.875900 528.585754,218.073502 525.709106,226.783630 
	C524.500000,230.218155 523.785156,233.140167 523.070312,236.062180 
	C523.070312,236.062180 523.014343,236.033478 522.601562,236.035034 
	C518.444763,236.372177 514.700806,236.707764 510.956848,237.043335 
	C510.956848,237.043335 511.001221,237.003143 510.992981,236.739044 
	C510.981750,236.283340 510.978699,236.091721 510.975647,235.900085 
	C510.975647,235.900085 511.025269,235.437424 511.175659,235.100494 
	C511.427063,234.488312 511.386200,234.230026 511.203461,233.988739 
	C511.895416,231.190964 512.587402,228.393188 513.423462,225.012817 
	C508.003784,225.012817 503.194305,224.830460 498.417175,225.142731 
	C497.241913,225.219559 495.669769,226.700150 495.168976,227.904892 
	C494.375153,229.814606 494.330292,232.035629 493.490417,234.642441 
	C489.073425,235.720566 485.134674,236.281204 481.195892,236.841843 
	C481.331818,236.618729 481.467743,236.395615 481.832672,236.229401 
	C482.061707,236.286285 481.846466,236.085526 481.846466,236.085526 
	C481.846466,236.085526 481.685852,236.315002 481.685852,236.315002 
	C481.509552,236.178329 481.333221,236.041672 481.387939,235.266724 
	C481.734894,234.415543 481.850800,234.202621 481.966705,233.989716 
z"/>
<path fill="#FFFFFF" opacity="1.000000" stroke="none" 
	d="
M183.234070,225.048462 
	C184.990021,219.023239 187.010666,213.058960 188.416245,206.953079 
	C189.496201,202.261749 191.752396,200.172256 196.631790,200.962250 
	C198.527588,201.269196 200.514679,201.012390 203.667023,201.012390 
	C198.284012,213.302307 199.124283,226.797684 189.264969,236.142212 
	C188.210114,237.141983 186.489090,237.942261 185.063095,237.965225 
	C175.921249,238.112381 166.774933,238.072525 157.631226,237.980301 
	C151.845184,237.921951 148.824890,233.963608 150.411880,228.341110 
	C152.431366,221.186310 155.032257,214.183441 156.785980,206.970032 
	C157.951004,202.178070 160.318161,200.296173 165.099426,200.968750 
	C166.835114,201.212921 168.633972,201.008026 170.988647,201.008026 
	C168.288681,210.106873 165.817383,218.435028 162.923325,228.187927 
	C169.956482,227.876541 176.101685,227.604462 182.966583,227.272736 
	C189.165726,231.553497 191.776123,230.700912 193.863907,223.913223 
	C195.004120,220.206207 196.329926,216.546616 197.242737,212.785706 
	C197.491882,211.759216 196.548676,210.443329 196.152679,209.260269 
	C195.606445,209.185944 195.060211,209.111633 194.513977,209.037323 
	C191.805756,213.692459 189.178589,218.398285 186.323944,222.961838 
	C185.721542,223.924820 184.285828,224.366547 183.234070,225.048462 
z"/>
<path fill="#4BB6D8" opacity="1.000000" stroke="none" 
	d="
M438.166626,235.964966 
	C434.287445,232.903473 436.169373,228.823929 436.971405,225.493484 
	C438.508484,219.110641 440.819763,212.890839 443.182922,206.746902 
	C443.769653,205.221512 445.782745,204.244751 447.984680,202.999435 
	C452.994629,202.982117 457.174316,202.760498 461.322510,203.027542 
	C469.223083,203.536179 477.105682,204.323898 484.997864,204.997864 
	C485.000000,205.000000 485.003845,205.002319 484.963165,205.363342 
	C482.415009,207.148865 480.024536,209.456757 477.374878,209.807724 
	C472.378082,210.469574 467.224884,209.851883 462.151947,210.090698 
	C460.386047,210.173843 458.665344,211.216141 456.923950,211.820374 
	C455.591370,212.908554 453.525177,213.752640 453.066315,215.131577 
	C451.787140,218.975906 451.174347,223.041992 450.842468,227.424347 
	C457.592255,227.879837 463.798035,227.931519 470.389069,227.986786 
	C473.204956,228.275528 475.635590,228.560699 478.852753,228.938141 
	C477.199890,232.048538 478.979156,236.422012 473.544464,236.350922 
	C461.752167,236.196640 449.959290,236.090683 438.166626,235.964966 
z"/>
<path fill="#FFFFFF" opacity="1.000000" stroke="none" 
	d="
M109.655457,206.632568 
	C109.966057,202.325989 111.885399,200.847076 115.898682,200.908905 
	C128.691376,201.105942 141.488998,200.981918 154.207245,200.981918 
	C155.112396,208.519867 153.075195,210.979141 146.482834,210.970566 
	C137.516129,210.958908 137.511002,210.957245 134.784241,219.418121 
	C133.259476,224.149307 131.323059,228.803024 130.380402,233.648880 
	C129.648529,237.411102 127.782143,238.189713 124.531372,238.008453 
	C121.911758,237.862381 119.277519,237.978867 115.863083,237.978867 
	C118.459892,228.775558 120.846085,220.318665 123.500465,210.911316 
	C119.153534,210.911316 115.866714,210.845551 112.583839,210.931091 
	C109.700455,211.006195 108.476089,209.940048 109.655457,206.632568 
z"/>
<path fill="#4BB6D8" opacity="1.000000" stroke="none" 
	d="
M391.012939,207.157715 
	C391.012939,207.157715 390.971405,207.574142 390.742584,208.008820 
	C390.358032,208.986069 390.202301,209.528641 390.046570,210.071213 
	C390.046570,210.071213 390.009552,210.010483 389.571075,210.026550 
	C387.156067,210.046829 385.148285,209.831863 383.210449,210.107758 
	C380.456696,210.499847 377.754395,211.252945 375.030090,211.851776 
	C373.716034,216.077957 372.430969,220.313477 371.075043,224.526184 
	C370.451019,226.464935 369.688110,228.359009 368.735535,230.934052 
	C368.325775,232.449173 368.168732,233.303604 368.011688,234.158035 
	C368.011688,234.158035 367.976868,234.574982 367.737976,235.006775 
	C367.347687,235.985153 367.196350,236.531738 367.044983,237.078308 
	C367.044983,237.078308 367.008514,237.004272 366.638733,236.930908 
	C364.321075,236.579712 362.265259,236.599640 360.454742,235.943085 
	C358.515106,235.239700 356.806396,233.899429 354.996887,232.837112 
	C357.100555,225.778656 359.204224,218.720200 361.502350,211.009308 
	C359.130371,211.009308 357.541992,211.009308 355.136810,210.994644 
	C351.773041,210.409531 348.670135,210.367294 349.212585,206.438324 
	C349.686035,203.009003 351.941498,201.935883 355.220306,201.962555 
	C365.636230,202.047256 376.056366,202.127731 386.468445,201.907074 
	C390.556641,201.820450 391.910156,203.316010 391.012939,207.157715 
z"/>
<path fill="#FFFFFF" opacity="1.000000" stroke="none" 
	d="
M431.871857,284.026703 
	C429.974487,282.547241 428.268066,280.616089 426.127808,279.711212 
	C423.840851,278.744263 421.050598,278.202179 418.676727,278.612518 
	C417.820770,278.760498 417.468872,282.195251 417.018555,284.160278 
	C416.799103,285.117737 417.251984,286.436157 416.747314,287.075897 
	C415.845917,288.218628 414.187805,289.909058 413.320953,289.667389 
	C412.006165,289.300781 410.178375,287.489960 410.162567,286.272003 
	C410.044189,277.140564 410.317444,268.004089 411.105469,258.508057 
	C420.203552,258.090302 428.664246,258.033661 437.124939,257.976990 
	C440.453827,257.495117 441.841766,259.306793 442.590424,262.272491 
	C444.514679,269.895203 442.243652,275.851044 435.819763,278.960815 
	C437.154358,280.471588 438.436218,281.922638 439.776825,283.894226 
	C439.622192,285.420532 439.408783,286.426270 439.220215,287.314911 
	C436.523468,286.108185 434.197662,285.067444 431.871857,284.026703 
M417.567566,263.564545 
	C416.099884,271.439331 416.549194,272.014038 424.164520,272.004272 
	C425.656738,272.002380 427.148987,272.002228 428.641205,271.999817 
	C436.255524,271.987488 437.348602,270.437469 435.165833,262.501648 
	C431.691132,260.130615 421.686523,260.372711 417.567566,263.564545 
z"/>
<path fill="#FFFFFF" opacity="1.000000" stroke="none" 
	d="
M522.999084,262.949707 
	C522.994690,270.042633 522.998779,269.897217 530.154907,270.098633 
	C532.829102,270.173920 537.549011,268.541351 537.424133,272.729126 
	C537.301514,276.841217 532.633057,274.626251 530.004578,274.907379 
	C526.413330,275.291504 522.282288,274.148468 522.933228,280.247864 
	C523.231323,283.041687 524.386597,283.937439 527.010620,284.017975 
	C532.145386,284.175598 537.290405,284.403381 542.391113,284.965332 
	C543.578064,285.096100 544.604675,286.682343 545.705017,287.598907 
	C544.423767,288.388184 543.164734,289.814819 541.857544,289.860321 
	C534.871399,290.103607 527.871765,289.925232 520.879700,290.050873 
	C517.211243,290.116791 515.877075,288.482300 515.932861,284.906128 
	C516.067932,276.248169 515.983154,267.586823 516.216980,258.343414 
	C516.718628,257.556732 516.912415,257.295654 517.028381,256.976807 
	C517.484375,256.977905 517.940430,256.979004 518.999084,257.287659 
	C521.502014,258.066803 523.389465,258.870972 525.305115,258.945190 
	C530.297607,259.138702 535.309814,258.860443 540.298035,259.102600 
	C541.865906,259.178711 543.382568,260.309845 544.462036,260.969482 
	C538.547852,260.986664 533.088135,260.850220 527.644775,261.087646 
	C526.072144,261.156250 524.546326,262.299286 522.999084,262.949707 
z"/>
<path fill="#FFFFFF" opacity="1.000000" stroke="none" 
	d="
M176.058868,288.931335 
	C170.462296,289.275635 164.861359,289.561829 159.270584,289.983093 
	C154.987045,290.305878 153.849533,288.096191 153.928040,284.241974 
	C154.093536,276.118011 154.016937,267.989136 154.534851,259.414917 
	C164.333664,259.681793 173.637283,260.396057 183.136383,261.386780 
	C183.760498,262.161102 184.215454,262.638855 184.613800,263.159912 
	C191.479950,272.141113 188.965363,282.273224 178.764938,286.952240 
	C177.769699,287.408752 176.956528,288.262146 176.058868,288.931335 
M160.982132,263.903351 
	C160.980499,266.550507 160.979019,269.197662 160.977219,271.844818 
	C160.968964,283.970703 160.968933,283.970703 173.573334,284.380585 
	C179.691467,285.243042 182.671661,283.390472 183.991653,277.041748 
	C183.319046,273.722351 182.646439,270.402954 182.154160,266.499359 
	C180.838821,265.106110 179.720093,262.820007 178.172989,262.479340 
	C172.485504,261.226959 166.588379,258.809570 160.982132,263.903351 
z"/>
<path fill="#FFFFFF" opacity="1.000000" stroke="none" 
	d="
M607.950745,259.986755 
	C608.222961,261.916260 608.495239,263.845734 608.111938,265.833984 
	C606.334473,265.610748 605.212524,265.328705 604.090637,265.046692 
	C604.055725,264.634430 604.020813,264.222198 603.833862,263.125671 
	C597.138489,262.179688 590.592102,261.757690 584.056458,261.884857 
	C583.341431,261.898712 582.327271,265.034576 582.149231,266.793030 
	C582.051819,267.755157 583.416077,268.865326 584.121155,269.908722 
	C590.701172,270.259949 597.301392,270.402588 603.853699,271.039032 
	C607.912598,271.433319 610.174805,273.773499 608.911743,278.244293 
	C608.866760,278.403442 608.787598,278.558746 608.773926,278.720032 
	C607.830627,289.816895 607.291931,290.285614 595.267090,289.632050 
	C593.505005,289.006012 592.331787,288.618530 591.127258,288.427002 
	C588.045044,287.936829 584.785828,287.977478 581.921631,286.924225 
	C580.289795,286.324158 579.293884,283.995056 578.011597,282.444550 
	C578.403198,282.164062 578.794800,281.883606 579.186462,281.603119 
	C580.495911,282.371948 581.805420,283.140747 583.114868,283.909546 
	C583.114868,283.909546 583.583252,283.978241 584.072021,284.221863 
	C587.026428,284.324310 589.492188,284.183136 591.957886,284.041931 
	C593.700989,284.030396 595.444092,284.018860 597.892334,284.221405 
	C600.049316,284.305267 601.501099,284.175049 602.952881,284.044861 
	C603.215820,283.821228 603.478760,283.597595 604.147766,282.996277 
	C604.415527,280.763367 604.277344,278.908142 604.139160,277.052948 
	C599.422424,276.702850 594.708984,276.116180 589.988403,276.051758 
	C580.075562,275.916412 578.684082,274.722595 578.345093,264.177673 
	C580.648560,260.585632 583.046387,258.305511 587.514038,258.923950 
	C594.635986,259.292816 601.293396,259.639771 607.950745,259.986755 
z"/>
<path fill="#FFFFFF" opacity="1.000000" stroke="none" 
	d="
M101.978302,275.985352 
	C98.614151,273.372955 95.250000,270.760529 90.991623,267.453735 
	C90.991623,273.506958 91.046242,278.873993 90.966652,284.239014 
	C90.931297,286.622955 91.548553,289.938507 87.760956,289.716156 
	C84.147560,289.504059 84.540817,286.813568 84.661987,283.808075 
	C84.947891,276.716461 84.394783,269.594940 84.341484,262.484344 
	C84.306595,257.829285 86.413216,256.503143 90.313896,259.368774 
	C96.031631,263.569305 101.177948,268.541351 106.655632,273.078522 
	C108.508011,274.612854 110.627258,275.824982 113.253326,277.110931 
	C118.474091,278.861084 119.159721,281.089630 117.007523,287.087250 
	C113.289116,284.737183 109.561607,282.381348 105.834091,280.025543 
	C105.574593,279.906952 105.359123,279.733582 105.015907,278.988068 
	C103.888855,277.642212 102.933578,276.813782 101.978302,275.985352 
z"/>
<path fill="#FFFFFF" opacity="1.000000" stroke="none" 
	d="
M314.945831,284.051575 
	C314.945831,284.051575 315.380951,283.996521 315.953827,283.846375 
	C318.652985,280.949493 319.117126,278.334473 315.917816,276.009644 
	C310.982056,276.007233 306.046295,276.011078 301.110535,276.000946 
	C292.199951,275.982697 291.428436,275.308228 290.429596,265.937378 
	C291.124634,263.586395 291.545227,261.772156 291.965790,259.957947 
	C291.965790,259.957947 292.000000,259.999634 292.401306,259.966553 
	C297.188934,259.627930 301.579651,259.374390 305.959961,258.998993 
	C309.004822,258.738068 312.035309,258.309692 315.072235,257.956085 
	C317.326324,259.757935 319.580414,261.559814 321.505341,263.772034 
	C319.495300,264.473450 317.814423,264.764465 316.133545,265.055481 
	C316.085114,264.657471 316.036682,264.259491 315.838745,263.178650 
	C308.990814,262.141144 302.292938,261.678009 295.592865,261.643707 
	C295.073700,261.641052 294.120911,264.655151 294.146790,266.254486 
	C294.166718,267.486359 295.407623,268.698456 296.105621,269.919312 
	C301.886047,269.945068 307.677795,269.772125 313.440887,270.101379 
	C315.535065,270.221008 317.560852,271.538971 319.812988,273.093201 
	C319.775177,279.037140 321.220367,284.528412 317.048126,288.913940 
	C312.988098,289.255188 308.928070,289.596436 304.278076,289.614777 
	C301.070374,289.205750 298.452637,289.119629 295.834900,289.033508 
	C295.834900,289.033508 295.397400,288.992767 295.064972,288.652283 
	C293.255219,286.272034 291.777924,284.232239 290.300598,282.192474 
	C290.587921,282.054108 290.875244,281.915741 291.162537,281.777405 
	C292.755676,282.539490 294.348846,283.301575 295.941986,284.063690 
	C296.130127,284.062134 296.318237,284.060608 296.890015,284.143677 
	C297.273621,284.228271 297.633820,284.253510 297.633820,284.253510 
	C297.633820,284.253510 297.950470,284.061127 297.950470,284.061127 
	C300.075439,284.066772 302.200378,284.072449 304.718262,284.258728 
	C305.393005,284.332092 305.674835,284.224854 305.956696,284.117615 
	C306.422699,284.101837 306.888702,284.086060 307.826233,284.380157 
	C310.513763,284.477234 312.729797,284.264404 314.945831,284.051575 
z"/>
<path fill="#FFFFFF" opacity="1.000000" stroke="none" 
	d="
M227.947052,261.960358 
	C227.952255,262.731140 227.957428,263.501923 227.637970,264.780914 
	C227.281815,266.628571 227.250290,267.968018 227.218765,269.307465 
	C227.218765,269.307465 227.249786,269.542816 227.098785,269.798676 
	C226.904312,270.159180 226.807526,270.276031 226.828079,270.366058 
	C226.876785,270.579254 226.981216,270.779663 227.063126,270.985260 
	C227.063126,270.985260 227.019058,271.014923 227.152496,271.172546 
	C227.475372,271.567413 227.693130,271.774902 227.939178,271.952698 
	C227.948715,274.678528 227.958252,277.404388 227.715149,280.636169 
	C227.695465,282.083191 227.928436,283.024292 228.161407,283.965363 
	C228.886047,283.978149 229.610718,283.990967 230.948700,284.228699 
	C233.686203,284.328461 235.810349,284.203308 237.934509,284.078186 
	C241.280624,284.046112 244.626740,284.014038 248.754059,283.768860 
	C250.022705,281.867584 250.861206,280.193726 250.930771,278.488495 
	C251.127121,273.674469 250.953339,268.846527 251.045700,264.026367 
	C251.074234,262.537231 251.489044,261.055511 251.726990,259.570374 
	C252.442047,259.581055 253.157120,259.591705 253.872177,259.602356 
	C253.918289,264.891205 253.844086,270.184601 254.045486,275.467529 
	C254.234436,280.423981 253.727905,285.078796 250.071960,288.849182 
	C242.201202,288.931946 234.315857,289.288574 226.471832,288.870209 
	C224.872086,288.784851 222.281494,285.896576 222.110184,284.112030 
	C221.369781,276.398865 221.358261,268.615784 221.459106,260.246765 
	C223.869141,259.417206 225.901596,259.199005 227.934082,258.980774 
	C227.949341,259.438049 227.964615,259.895325 227.884979,260.800232 
	C227.684616,261.512878 227.736938,261.750366 227.947052,261.960358 
z"/>
<path fill="#FFFFFF" opacity="1.000000" stroke="none" 
	d="
M481.929321,286.456909 
	C480.469482,287.862732 479.043762,288.828339 477.618073,289.793976 
	C476.747498,288.395386 475.167450,287.018616 475.123627,285.594604 
	C474.873932,277.475220 475.010284,269.344482 474.970245,261.217834 
	C474.958344,258.799988 475.366730,256.974518 478.429230,256.981293 
	C481.392487,256.987823 482.020355,258.632385 482.004395,261.139069 
	C481.951569,269.431366 481.971497,277.724152 481.929321,286.456909 
z"/>
<path fill="#51B1CF" opacity="1.000000" stroke="none" 
	d="
M293.650940,97.101273 
	C293.443481,103.454727 292.836700,109.835724 292.097168,116.585648 
	C288.232697,118.344307 284.500916,119.734024 279.621368,121.551201 
	C281.764557,113.779610 283.184174,106.855164 285.770844,100.398239 
	C286.491882,98.598351 290.663147,98.180618 293.650940,97.101273 
z"/>
<path fill="#FFFFFF" opacity="1.000000" stroke="none" 
	d="
M367.023987,289.930176 
	C366.259552,289.943207 365.495056,289.956238 364.359680,289.481537 
	C363.988556,285.549561 364.202393,282.086639 363.904266,278.668396 
	C363.737366,276.755005 362.721863,274.915619 362.088684,273.042908 
	C362.060211,269.989746 362.031738,266.936584 362.038574,263.129639 
	C360.230347,261.914246 358.374481,261.496002 356.546265,260.979980 
	C354.343994,260.358368 352.165192,259.653748 350.446350,258.981842 
	C358.841400,258.974182 366.768860,259.075653 374.689148,258.882751 
	C376.431488,258.840302 378.148376,257.752319 379.876984,257.145813 
	C380.367004,257.112122 380.857025,257.078461 381.741089,257.314453 
	C382.369904,257.992523 382.604614,258.400940 382.839325,258.809326 
	C383.176758,261.676697 382.534454,262.724731 379.084076,262.459839 
	C375.844574,262.211151 372.475342,263.653107 368.692688,264.879089 
	C367.817963,267.109528 367.100403,268.805542 367.065094,270.515686 
	C366.931458,276.984680 367.019135,283.458282 367.023987,289.930176 
z"/>
<path fill="#FFFFFF" opacity="1.000000" stroke="none" 
	d="
M106.036125,280.299652 
	C109.561607,282.381348 113.289116,284.737183 117.007523,287.087250 
	C119.159721,281.089630 118.474091,278.861084 113.508369,276.992188 
	C113.096130,271.628204 112.790482,266.288879 113.198204,261.004608 
	C113.306458,259.601624 115.606247,258.367767 116.899811,257.056244 
	C117.921448,258.370911 119.788498,259.660889 119.827713,261.004242 
	C120.084663,269.807739 119.953995,278.622772 119.922218,287.433929 
	C119.919891,288.077271 119.699333,288.719849 119.505600,289.765747 
	C112.618492,290.084778 110.401695,283.861694 106.036125,280.299652 
z"/>
<path fill="#60BCD4" opacity="1.000000" stroke="none" 
	d="
M484.995758,204.995728 
	C477.105682,204.323898 469.223083,203.536179 461.322510,203.027542 
	C457.174316,202.760498 452.994629,202.982117 448.351166,202.983459 
	C449.256927,202.329361 450.633667,201.124664 452.025574,201.106812 
	C463.827850,200.955429 475.632874,201.020325 487.369232,201.020325 
	C489.330841,207.071014 486.212128,211.886871 480.321686,211.963257 
	C472.837891,212.060333 465.351837,211.980774 457.395386,211.898880 
	C458.665344,211.216141 460.386047,210.173843 462.151947,210.090698 
	C467.224884,209.851883 472.378082,210.469574 477.374878,209.807724 
	C480.024536,209.456757 482.415009,207.148865 485.077759,205.261993 
	C485.239380,204.603439 485.245758,204.407288 485.252106,204.211121 
	C485.166656,204.472656 485.081207,204.734192 484.995758,204.995728 
z"/>
<path fill="#FFFFFF" opacity="1.000000" stroke="none" 
	d="
M44.001591,259.069275 
	C45.314148,258.424164 46.681591,257.216095 47.919476,257.336761 
	C48.711403,257.414001 49.874756,259.439331 49.905464,260.616455 
	C50.083427,267.437469 49.974323,274.265961 49.657734,281.461975 
	C48.543159,281.472168 47.733200,281.112274 47.978779,281.221405 
	C46.499538,283.432312 45.338871,285.167084 44.138596,286.443359 
	C44.066528,277.013031 44.034061,268.041138 44.001591,259.069275 
z"/>
<path fill="#62B8D3" opacity="1.000000" stroke="none" 
	d="
M405.492859,212.890335 
	C404.203857,209.287689 407.172272,210.095856 408.978729,210.072754 
	C417.724792,209.960922 426.473083,210.022293 435.021881,210.022293 
	C434.321045,201.338425 427.569183,202.501022 422.222168,202.114639 
	C415.795563,201.650208 409.311310,201.983856 402.377777,201.962769 
	C402.599091,201.644730 403.293365,201.069916 403.990326,201.066650 
	C415.763428,201.011276 427.536835,201.027023 439.256104,201.027023 
	C440.911469,208.458069 438.197540,211.877213 431.035309,211.996231 
	C422.644928,212.135681 414.257568,212.455704 405.492859,212.890335 
z"/>
<path fill="#FFFFFF" opacity="1.000000" stroke="none" 
	d="
M183.182999,225.372681 
	C184.285828,224.366547 185.721542,223.924820 186.323944,222.961838 
	C189.178589,218.398285 191.805756,213.692459 194.513977,209.037323 
	C195.060211,209.111633 195.606445,209.185944 196.152679,209.260269 
	C196.548676,210.443329 197.491882,211.759216 197.242737,212.785706 
	C196.329926,216.546616 195.004120,220.206207 193.863907,223.913223 
	C191.776123,230.700912 189.165726,231.553497 183.354095,227.109161 
	C183.058578,226.569138 183.095245,226.133026 183.182999,225.372681 
z"/>
<path fill="#FFFFFF" opacity="1.000000" stroke="none" 
	d="
M308.398773,74.021347 
	C311.285522,72.019211 314.387848,69.617729 317.870636,68.075165 
	C321.158417,66.618950 325.013214,66.436134 328.287720,64.959457 
	C329.917999,64.224236 330.807465,61.846256 332.007935,59.969055 
	C331.983826,59.726719 331.944275,59.963524 332.123138,59.846298 
	C332.533539,59.561195 332.742554,59.368832 333.315765,59.068123 
	C337.475220,58.059258 341.247925,57.134254 345.020660,56.209244 
	C345.306702,57.215561 345.592743,58.221882 345.942932,59.534615 
	C335.769928,63.833202 325.539551,67.842812 315.290161,71.803307 
	C313.156311,72.627853 310.952240,73.270607 308.398773,74.021347 
z"/>
<path fill="#FFFFFF" opacity="1.000000" stroke="none" 
	d="
M250.442291,288.866241 
	C253.727905,285.078796 254.234436,280.423981 254.045486,275.467529 
	C253.844086,270.184601 253.918289,264.891205 253.872177,259.602356 
	C253.157120,259.591705 252.442047,259.581055 251.726990,259.570374 
	C251.489044,261.055511 251.074234,262.537231 251.045700,264.026367 
	C250.953339,268.846527 251.127121,273.674469 250.930771,278.488495 
	C250.861206,280.193726 250.022705,281.867584 249.205719,283.778961 
	C248.920166,276.182526 248.835968,268.357880 249.142746,260.548584 
	C249.190155,259.341492 251.039871,257.260651 252.039398,257.270538 
	C253.337891,257.283386 255.731400,258.981995 255.733841,259.959839 
	C255.754593,268.234741 255.535828,276.526733 254.868408,284.771484 
	C254.749374,286.241913 252.225861,287.517670 250.442291,288.866241 
z"/>
<path fill="#62B8D3" opacity="1.000000" stroke="none" 
	d="
M438.234406,236.363220 
	C449.959290,236.090683 461.752167,236.196640 473.544464,236.350922 
	C478.979156,236.422012 477.199890,232.048538 478.852753,228.938141 
	C475.635590,228.560699 473.204956,228.275528 470.386414,227.792267 
	C469.998474,227.594147 469.995270,227.204681 469.995270,227.204681 
	C473.130249,227.204681 476.265228,227.204681 480.396149,227.204681 
	C479.765839,230.268661 479.435486,233.093491 478.518250,235.712830 
	C478.168030,236.712891 476.482391,237.873016 475.389984,237.888672 
	C464.074982,238.050797 452.756622,238.026306 441.440002,237.943909 
	C440.391235,237.936249 439.347992,237.173584 438.234406,236.363220 
z"/>
<path fill="#FFFFFF" opacity="1.000000" stroke="none" 
	d="
M306.873322,137.516449 
	C306.822144,137.981445 306.412354,137.992508 306.206177,137.996246 
	C306.000000,138.000000 305.996338,137.997696 305.996338,137.997696 
	C305.664612,134.380585 305.105408,130.767181 305.046600,127.145638 
	C304.906036,118.491829 304.925110,109.832977 305.061096,101.179016 
	C305.090790,99.287697 305.877655,97.408279 306.608582,95.282120 
	C306.909027,109.044380 306.916779,123.047920 306.873322,137.516449 
z"/>
<path fill="#66B4C5" opacity="1.000000" stroke="none" 
	d="
M391.349365,206.950897 
	C391.910156,203.316010 390.556641,201.820450 386.468445,201.907074 
	C376.056366,202.127731 365.636230,202.047256 355.220306,201.962555 
	C351.941498,201.935883 349.686035,203.009003 349.212585,206.438324 
	C348.670135,210.367294 351.773041,210.409531 354.710876,211.023224 
	C352.167511,211.240433 349.233307,211.414398 345.772430,211.619583 
	C349.097412,200.998001 349.097412,200.997925 358.558350,200.997849 
	C369.875793,200.997757 381.193268,200.997818 393.420288,200.997818 
	C392.736603,203.262848 392.211212,205.003448 391.349365,206.950897 
z"/>
<path fill="#FFFFFF" opacity="1.000000" stroke="none" 
	d="
M176.458557,288.958069 
	C176.956528,288.262146 177.769699,287.408752 178.764938,286.952240 
	C188.965363,282.273224 191.479950,272.141113 184.613800,263.159912 
	C184.215454,262.638855 183.760498,262.161102 183.336975,261.211670 
	C183.571701,260.492767 183.801315,260.225464 184.030914,259.958160 
	C189.734512,264.588989 191.690598,272.339630 189.119217,280.119781 
	C187.275208,285.699249 183.159210,288.675201 176.458557,288.958069 
z"/>
<path fill="#60BCD4" opacity="1.000000" stroke="none" 
	d="
M431.890808,228.545807 
	C422.635651,228.971741 413.423584,229.007675 404.212311,228.939865 
	C401.066101,228.916702 398.670105,228.147415 401.491821,224.126160 
	C401.749664,224.884201 401.705719,225.822006 401.648865,227.034714 
	C410.296997,227.034714 418.929962,226.984756 427.561218,227.083206 
	C429.022614,227.099854 430.476715,227.755005 431.890808,228.545807 
z"/>
<path fill="#FFFFFF" opacity="1.000000" stroke="none" 
	d="
M583.089905,283.506195 
	C581.805420,283.140747 580.495911,282.371948 579.186462,281.603119 
	C578.794800,281.883606 578.403198,282.164062 578.011597,282.444550 
	C579.293884,283.995056 580.289795,286.324158 581.921631,286.924225 
	C584.785828,287.977478 588.045044,287.936829 591.127258,288.427002 
	C592.331787,288.618530 593.505005,289.006012 594.821411,289.609070 
	C590.545776,289.641144 586.142761,289.340271 581.736267,289.103363 
	C577.155090,288.857056 576.803406,285.221924 576.565125,282.046692 
	C576.498840,281.162628 578.890869,280.094086 580.155090,279.110168 
	C581.125061,280.441071 582.094971,281.771973 583.089905,283.506195 
z"/>
<path fill="#FFFFFF" opacity="1.000000" stroke="none" 
	d="
M379.419678,257.119507 
	C378.148376,257.752319 376.431488,258.840302 374.689148,258.882751 
	C366.768860,259.075653 358.841400,258.974182 350.250244,258.971008 
	C349.583954,258.963379 349.191071,258.943024 349.191071,258.943024 
	C350.651672,258.296997 352.102753,257.118988 353.574402,257.092743 
	C362.034393,256.941803 370.499207,257.063782 379.419678,257.119507 
z"/>
<path fill="#FFFFFF" opacity="1.000000" stroke="none" 
	d="
M296.069122,269.488251 
	C295.407623,268.698456 294.166718,267.486359 294.146790,266.254486 
	C294.120911,264.655151 295.073700,261.641052 295.592865,261.643707 
	C302.292938,261.678009 308.990814,262.141144 315.829803,262.877960 
	C311.334900,263.175598 306.678223,263.337219 302.069916,262.938751 
	C297.289093,262.525330 295.208099,264.214233 296.069122,269.488251 
z"/>
<path fill="#FFFFFF" opacity="1.000000" stroke="none" 
	d="
M544.922668,260.958130 
	C543.382568,260.309845 541.865906,259.178711 540.298035,259.102600 
	C535.309814,258.860443 530.297607,259.138702 525.305115,258.945190 
	C523.389465,258.870972 521.502014,258.066803 519.339172,257.325195 
	C527.073669,257.028046 535.072144,257.078552 543.067078,256.934357 
	C546.128479,256.879181 547.418579,258.016602 546.564697,261.429504 
	C545.813904,261.513489 545.368286,261.235809 544.922668,260.958130 
z"/>
<path fill="#FFFFFF" opacity="1.000000" stroke="none" 
	d="
M183.740738,259.723694 
	C183.801315,260.225464 183.571701,260.492767 183.141510,260.935242 
	C173.637283,260.396057 164.333664,259.681793 154.571838,258.942322 
	C154.752014,258.302917 155.383514,257.162231 156.029755,257.153839 
	C165.240051,257.034088 174.557999,255.867310 183.740738,259.723694 
z"/>
<path fill="#FFFFFF" opacity="1.000000" stroke="none" 
	d="
M584.094482,269.479309 
	C583.416077,268.865326 582.051819,267.755157 582.149231,266.793030 
	C582.327271,265.034576 583.341431,261.898712 584.056458,261.884857 
	C590.592102,261.757690 597.138489,262.179688 603.831360,262.815247 
	C599.353943,263.137115 594.704651,263.348602 590.106018,262.960480 
	C585.340027,262.558228 583.262085,264.220673 584.094482,269.479309 
z"/>
<path fill="#FFFFFF" opacity="1.000000" stroke="none" 
	d="
M339.838593,202.653244 
	C332.310547,202.990082 324.563263,203.049118 316.817963,202.950607 
	C315.071228,202.928391 313.331482,202.357178 311.290955,201.726334 
	C319.191467,201.275284 327.389343,201.074280 335.587616,201.060150 
	C336.931030,201.057831 338.275879,201.878265 339.838593,202.653244 
z"/>
<path fill="#FFFFFF" opacity="1.000000" stroke="none" 
	d="
M367.394501,289.806152 
	C367.019135,283.458282 366.931458,276.984680 367.065094,270.515686 
	C367.100403,268.805542 367.817963,267.109528 368.553467,265.231598 
	C368.923523,271.770020 369.036926,278.484924 368.943695,285.196930 
	C368.922882,286.697174 368.177063,288.187378 367.394501,289.806152 
z"/>
<path fill="#60BCD4" opacity="1.000000" stroke="none" 
	d="
M433.391785,218.818741 
	C432.647369,218.543106 432.237701,218.035690 432.053223,217.807220 
	C429.919006,218.954666 427.844849,220.069824 425.770691,221.184967 
	C425.175964,219.443344 424.581238,217.701691 423.981628,215.567108 
	C427.181976,215.174179 430.387238,215.174179 433.726471,215.174179 
	C433.726471,216.414078 433.726471,217.500504 433.391785,218.818741 
z"/>
<path fill="#FFFFFF" opacity="1.000000" stroke="none" 
	d="
M436.780579,257.724792 
	C428.664246,258.033661 420.203552,258.090302 411.310730,258.156067 
	C415.261902,257.775055 419.639343,257.180054 424.030212,257.054352 
	C428.158173,256.936157 432.300323,257.313354 436.780579,257.724792 
z"/>
<path fill="#FFFFFF" opacity="1.000000" stroke="none" 
	d="
M432.048706,284.329742 
	C434.197662,285.067444 436.523468,286.108185 439.220215,287.314911 
	C439.408783,286.426270 439.622192,285.420532 439.952271,284.168121 
	C441.782776,285.310028 443.496613,286.698578 445.712280,288.493713 
	C438.717407,291.014832 435.701477,289.951416 432.048706,284.329742 
z"/>
<path fill="#FFFFFF" opacity="1.000000" stroke="none" 
	d="
M314.743225,257.690491 
	C312.035309,258.309692 309.004822,258.738068 305.959961,258.998993 
	C301.579651,259.374390 297.188934,259.627930 292.379578,259.950745 
	C293.679016,258.997681 295.368927,257.271637 297.129944,257.195740 
	C302.877380,256.948029 308.650787,257.302216 314.743225,257.690491 
z"/>
<path fill="#FFFFFF" opacity="1.000000" stroke="none" 
	d="
M544.462036,260.969482 
	C545.368286,261.235809 545.813904,261.513489 546.515259,261.848236 
	C542.280579,262.251617 537.794617,262.687622 533.298157,262.913391 
	C530.184998,263.069733 527.057312,262.936066 523.467590,262.940857 
	C524.546326,262.299286 526.072144,261.156250 527.644775,261.087646 
	C533.088135,260.850220 538.547852,260.986664 544.462036,260.969482 
z"/>
<path fill="#FFFFFF" opacity="1.000000" stroke="none" 
	d="
M295.715698,283.771484 
	C294.348846,283.301575 292.755676,282.539490 291.162537,281.777405 
	C290.875244,281.915741 290.587921,282.054108 290.300598,282.192474 
	C291.777924,284.232239 293.255219,286.272034 294.848145,288.616943 
	C289.032776,289.609436 288.951752,285.242920 288.285309,281.365570 
	C293.444122,277.817474 294.132874,278.028503 295.715698,283.771484 
z"/>
<path fill="#FFFFFF" opacity="1.000000" stroke="none" 
	d="
M607.717529,259.710754 
	C601.293396,259.639771 594.635986,259.292816 587.386475,258.711731 
	C586.565735,258.037476 586.337219,257.597290 586.108704,257.157074 
	C593.271301,257.564880 600.745789,255.046005 607.717529,259.710754 
z"/>
<path fill="#60BCD4" opacity="1.000000" stroke="none" 
	d="
M469.533386,227.125351 
	C469.995270,227.204681 469.998474,227.594147 470.001160,227.788666 
	C463.798035,227.931519 457.592255,227.879837 451.188507,227.504547 
	C457.017517,227.135956 463.044495,227.090988 469.533386,227.125351 
z"/>
<path fill="#51B1CF" opacity="1.000000" stroke="none" 
	d="
M392.361481,78.966476 
	C391.379364,77.703697 390.709442,76.285339 390.008728,74.528046 
	C393.182037,73.510452 396.386139,72.831787 399.590240,72.153130 
	C399.806549,72.559494 400.022827,72.965858 400.239136,73.372215 
	C397.717316,75.185104 395.195465,76.997993 392.361481,78.966476 
z"/>
<path fill="#FFFFFF" opacity="1.000000" stroke="none" 
	d="
M44.178200,286.901855 
	C45.338871,285.167084 46.499538,283.432312 47.978779,281.221405 
	C47.733200,281.112274 48.543159,281.472168 49.618752,281.931152 
	C49.921707,283.344391 49.980499,284.658356 49.992508,285.972748 
	C50.035927,290.726074 47.775505,290.848846 44.240051,288.128723 
	C44.103508,287.318207 44.140854,287.110016 44.178200,286.901855 
z"/>
<path fill="#00FFFF" opacity="1.000000" stroke="none" 
	d="
M341.912140,130.479034 
	C341.572693,126.242409 341.123138,121.547684 341.081879,116.849373 
	C341.025757,110.463432 341.281830,104.074745 341.706329,97.414047 
	C342.000397,108.100342 341.992157,119.059830 341.912140,130.479034 
z"/>
<path fill="#FFFFFF" opacity="1.000000" stroke="none" 
	d="
M317.413879,288.885132 
	C321.220367,284.528412 319.775177,279.037140 320.008545,273.408020 
	C323.910858,277.091156 322.631592,286.224854 317.413879,288.885132 
z"/>
<path fill="#FFFFFF" opacity="1.000000" stroke="none" 
	d="
M362.060547,273.504578 
	C362.721863,274.915619 363.737366,276.755005 363.904266,278.668396 
	C364.202393,282.086639 363.988556,285.549561 363.978210,289.452667 
	C363.313080,287.710632 362.319489,285.544952 362.086304,283.300262 
	C361.766327,280.220306 362.022919,277.080475 362.060547,273.504578 
z"/>
<path fill="#FFFFFF" opacity="1.000000" stroke="none" 
	d="
M306.919891,92.514465 
	C303.369843,87.636063 305.025879,81.966614 306.057739,75.961571 
	C306.521332,81.064491 306.743652,86.558052 306.919891,92.514465 
z"/>
<path fill="#FFFFFF" opacity="1.000000" stroke="none" 
	d="
M349.152008,259.352142 
	C349.191071,258.943024 349.583954,258.963379 349.780090,258.974243 
	C352.165192,259.653748 354.343994,260.358368 356.546265,260.979980 
	C358.374481,261.496002 360.230347,261.914246 362.041504,262.672241 
	C358.937958,262.966827 355.816467,263.287109 352.818420,262.818207 
	C351.457153,262.605286 350.340546,260.828613 349.152008,259.352142 
z"/>
<path fill="#66B4C5" opacity="1.000000" stroke="none" 
	d="
M375.488342,211.919312 
	C377.754395,211.252945 380.456696,210.499847 383.210449,210.107758 
	C385.148285,209.831863 387.156067,210.046829 389.602722,210.042786 
	C389.174988,210.668076 388.306030,211.777863 387.374207,211.833435 
	C383.575470,212.060028 379.757507,211.963989 375.488342,211.919312 
z"/>
<path fill="#FFFFFF" opacity="1.000000" stroke="none" 
	d="
M44.138599,286.443359 
	C44.140854,287.110016 44.103508,287.318207 44.015724,287.839935 
	C43.642330,284.442383 43.084244,280.733368 43.050728,277.019623 
	C42.998600,271.243958 43.303165,265.465057 43.729073,259.378418 
	C44.034061,268.041138 44.066528,277.013031 44.138599,286.443359 
z"/>
<path fill="#66B4C5" opacity="1.000000" stroke="none" 
	d="
M354.647247,233.075134 
	C356.806396,233.899429 358.515106,235.239700 360.454742,235.943085 
	C362.265259,236.599640 364.321075,236.579712 366.667175,236.960876 
	C362.830963,237.501205 358.596497,237.938187 353.925354,238.420227 
	C354.089783,236.163971 354.193695,234.738556 354.647247,233.075134 
z"/>
<path fill="#66B4C5" opacity="1.000000" stroke="none" 
	d="
M481.138489,237.091949 
	C485.134674,236.281204 489.073425,235.720566 493.416870,235.047226 
	C493.074219,235.939880 492.357422,237.778427 491.574371,237.807098 
	C488.086914,237.934799 484.580597,237.544876 481.138489,237.091949 
z"/>
<path fill="#FFFFFF" opacity="1.000000" stroke="none" 
	d="
M585.706787,257.109100 
	C586.337219,257.597290 586.565735,258.037476 586.921875,258.689850 
	C583.046387,258.305511 580.648560,260.585632 578.362061,263.753510 
	C576.881409,257.835602 581.328430,257.696533 585.706787,257.109100 
z"/>
<path fill="#62B8D3" opacity="1.000000" stroke="none" 
	d="
M511.179321,237.411163 
	C514.700806,236.707764 518.444763,236.372177 522.631042,236.055084 
	C522.233643,236.716309 521.420837,237.863907 520.549255,237.910355 
	C517.511047,238.072281 514.452576,237.853226 511.179321,237.411163 
z"/>
<path fill="#FFFFFF" opacity="1.000000" stroke="none" 
	d="
M315.941376,276.451843 
	C319.117126,278.334473 318.652985,280.949493 316.172852,283.835144 
	C315.867645,281.614105 315.916290,279.254089 315.941376,276.451843 
z"/>
<path fill="#FFFFFF" opacity="1.000000" stroke="none" 
	d="
M227.838959,258.631836 
	C225.901596,259.199005 223.869141,259.417206 221.491150,259.773438 
	C222.386505,255.485092 224.978577,256.533081 227.838959,258.631836 
z"/>
<path fill="#62B8D3" opacity="1.000000" stroke="none" 
	d="
M523.409058,235.885391 
	C523.785156,233.140167 524.500000,230.218155 525.522949,227.124588 
	C525.136658,229.871567 524.442261,232.790085 523.409058,235.885391 
z"/>
<path fill="#FFFFFF" opacity="1.000000" stroke="none" 
	d="
M316.210602,265.392090 
	C317.814423,264.764465 319.495300,264.473450 321.534058,264.119019 
	C320.900543,267.550140 318.967072,267.888763 316.210602,265.392090 
z"/>
<path fill="#FFFFFF" opacity="1.000000" stroke="none" 
	d="
M291.598053,260.029175 
	C291.545227,261.772156 291.124634,263.586395 290.435364,265.607971 
	C290.521210,263.910339 290.875763,262.005371 291.598053,260.029175 
z"/>
<path fill="#FFFFFF" opacity="1.000000" stroke="none" 
	d="
M296.162994,289.281006 
	C298.452637,289.119629 301.070374,289.205750 303.819763,289.590546 
	C301.464630,289.768982 298.977844,289.648743 296.162994,289.281006 
z"/>
<path fill="#FFFFFF" opacity="1.000000" stroke="none" 
	d="
M604.102783,277.472870 
	C604.277344,278.908142 604.415527,280.763367 604.303528,282.788574 
	C604.057678,281.270020 604.062012,279.581390 604.102783,277.472870 
z"/>
<path fill="#FFFFFF" opacity="1.000000" stroke="none" 
	d="
M314.515869,284.033630 
	C312.729797,284.264404 310.513763,284.477234 308.175415,284.403259 
	C310.064026,284.082855 312.074951,284.049286 314.515869,284.033630 
z"/>
<path fill="#FFFFFF" opacity="1.000000" stroke="none" 
	d="
M591.519470,284.023895 
	C589.492188,284.183136 587.026428,284.324310 584.305908,284.258026 
	C586.394409,284.035675 588.737732,284.020752 591.519470,284.023895 
z"/>
<path fill="#FFFFFF" opacity="1.000000" stroke="none" 
	d="
M237.506073,284.051392 
	C235.810349,284.203308 233.686203,284.328461 231.310089,284.256592 
	C233.064636,284.047913 235.071136,284.036255 237.506073,284.051392 
z"/>
<path fill="#FFFFFF" opacity="1.000000" stroke="none" 
	d="
M227.391846,268.978149 
	C227.250290,267.968018 227.281815,266.628571 227.606934,265.165253 
	C227.788651,266.243866 227.676773,267.446381 227.391846,268.978149 
z"/>
<path fill="#FFFFFF" opacity="1.000000" stroke="none" 
	d="
M102.052429,276.316772 
	C102.933578,276.813782 103.888855,277.642212 104.913841,278.805603 
	C104.031219,278.309753 103.078880,277.478973 102.052429,276.316772 
z"/>
<path fill="#FFFFFF" opacity="1.000000" stroke="none" 
	d="
M604.156616,265.367798 
	C605.212524,265.328705 606.334473,265.610748 607.802734,265.960907 
	C606.840271,265.915680 605.531433,265.802307 604.156616,265.367798 
z"/>
<path fill="#FFFFFF" opacity="1.000000" stroke="none" 
	d="
M602.545227,284.026062 
	C601.501099,284.175049 600.049316,284.305267 598.327637,284.244324 
	C599.417664,284.037903 600.777588,284.022552 602.545227,284.026062 
z"/>
<path fill="#FFFFFF" opacity="1.000000" stroke="none" 
	d="
M228.112671,283.600494 
	C227.928436,283.024292 227.695465,282.083191 227.677704,281.088898 
	C227.949905,281.768982 228.006912,282.502319 228.112671,283.600494 
z"/>
<path fill="#51B1CF" opacity="1.000000" stroke="none" 
	d="
M387.711182,75.128250 
	C387.453156,75.527359 386.896362,75.868431 386.155334,76.064362 
	C386.451538,75.636208 386.932007,75.353210 387.711182,75.128250 
z"/>
<path fill="#60BCD4" opacity="1.000000" stroke="none" 
	d="
M431.345825,232.955872 
	C431.182648,232.256149 431.344604,231.402924 431.689453,230.276672 
	C431.805206,230.936554 431.738098,231.869476 431.345825,232.955872 
z"/>
<path fill="#66B4C5" opacity="1.000000" stroke="none" 
	d="
M368.321838,233.980789 
	C368.168732,233.303604 368.325775,232.449173 368.653015,231.315369 
	C368.759430,231.958527 368.695709,232.881027 368.321838,233.980789 
z"/>
<path fill="#FFFFFF" opacity="1.000000" stroke="none" 
	d="
M382.831055,258.562134 
	C382.604614,258.400940 382.369904,257.992523 382.108643,257.345215 
	C382.329010,257.509155 382.575928,257.912018 382.831055,258.562134 
z"/>
<path fill="#66B4C5" opacity="1.000000" stroke="none" 
	d="
M367.345123,236.954193 
	C367.196350,236.531738 367.347687,235.985153 367.664429,235.202637 
	C367.768311,235.587830 367.706787,236.208954 367.345123,236.954193 
z"/>
<path fill="#FFFFFF" opacity="1.000000" stroke="none" 
	d="
M305.729187,284.111145 
	C305.674835,284.224854 305.393005,284.332092 305.079102,284.283600 
	C305.047028,284.127869 305.501648,284.104706 305.729187,284.111145 
z"/>
<path fill="#66B4C5" opacity="1.000000" stroke="none" 
	d="
M390.335571,209.935394 
	C390.202301,209.528641 390.358032,208.986069 390.672943,208.206146 
	C390.762939,208.579056 390.693787,209.189316 390.335571,209.935394 
z"/>
<path fill="#FFFFFF" opacity="1.000000" stroke="none" 
	d="
M297.730164,284.057434 
	C297.950470,284.061127 297.633820,284.253510 297.633820,284.253510 
	C297.633820,284.253510 297.273621,284.228271 297.171936,284.156311 
	C297.070251,284.084381 297.509888,284.053772 297.730164,284.057434 
z"/>
<path fill="#FFFFFF" opacity="1.000000" stroke="none" 
	d="
M516.777832,257.050232 
	C516.912415,257.295654 516.718628,257.556732 516.228577,257.874146 
	C516.182495,257.700043 516.354919,257.411835 516.777832,257.050232 
z"/>
<path fill="#62B8D3" opacity="1.000000" stroke="none" 
	d="
M407.708282,215.095520 
	C407.921326,215.157471 407.608276,215.324417 407.608276,215.324417 
	C407.608276,215.324417 407.262787,215.287689 407.164673,215.217957 
	C407.066589,215.148224 407.495239,215.033585 407.708282,215.095520 
z"/>
<path fill="#62B8D3" opacity="1.000000" stroke="none" 
	d="
M510.738892,235.994934 
	C510.978699,236.091721 510.981750,236.283340 510.972290,236.762054 
	C510.807281,236.729370 510.654724,236.409561 510.738892,235.994934 
z"/>
<path fill="#66B4C5" opacity="1.000000" stroke="none" 
	d="
M481.752136,234.040283 
	C481.850800,234.202621 481.734894,234.415543 481.420258,234.933670 
	C481.326874,234.856216 481.432220,234.473541 481.752136,234.040283 
z"/>
<path fill="#66B4C5" opacity="1.000000" stroke="none" 
	d="
M481.753876,236.373169 
	C481.685852,236.315002 481.846466,236.085526 481.846466,236.085526 
	C481.846466,236.085526 482.061707,236.286285 482.168488,236.431366 
	C482.275269,236.576447 481.821899,236.431320 481.753876,236.373169 
z"/>
<path fill="#FFFFFF" opacity="1.000000" stroke="none" 
	d="
M227.848175,271.735107 
	C227.693130,271.774902 227.475372,271.567413 227.153870,271.146027 
	C227.350708,271.036285 227.595810,271.221497 227.848175,271.735107 
z"/>
<path fill="#FFFFFF" opacity="1.000000" stroke="none" 
	d="
M227.117157,270.680603 
	C226.981216,270.779663 226.876785,270.579254 226.828079,270.366058 
	C226.807526,270.276031 226.904312,270.159180 227.048096,269.906006 
	C227.155991,269.963623 227.163589,270.169769 227.117157,270.680603 
z"/>
<path fill="#62B8D3" opacity="1.000000" stroke="none" 
	d="
M511.131042,234.239014 
	C511.386200,234.230026 511.427063,234.488312 511.250854,234.880325 
	C511.136627,234.827805 511.097626,234.658554 511.131042,234.239014 
z"/>
<path fill="#FFFFFF" opacity="1.000000" stroke="none" 
	d="
M227.959686,261.729950 
	C227.736938,261.750366 227.684616,261.512878 227.870270,261.143219 
	C227.950470,261.038544 227.972321,261.499542 227.959686,261.729950 
z"/>
<path fill="#FFFFFF" opacity="1.000000" stroke="none" 
	d="
M345.414001,56.136299 
	C341.247925,57.134254 337.475220,58.059258 333.078308,59.105614 
	C332.087708,59.336414 331.917755,59.581932 331.944275,59.963524 
	C331.944275,59.963524 331.983826,59.726719 331.875000,59.668884 
	C316.120178,62.589531 300.475250,65.573463 284.826355,68.536423 
	C283.537140,68.780525 282.220978,68.882278 280.371887,68.919464 
	C279.826416,68.788742 279.558807,68.489845 279.558807,68.489845 
	C295.437164,47.880840 332.662842,37.636654 353.588715,54.434738 
	C350.703003,55.038700 348.255157,55.551022 345.414001,56.136299 
z"/>
<path fill="#FFFFFF" opacity="1.000000" stroke="none" 
	d="
M279.953064,68.944321 
	C279.734955,69.298088 279.390259,69.496277 279.045532,69.694458 
	C279.097290,69.363785 279.149017,69.033112 279.379791,68.596146 
	C279.558807,68.489845 279.826416,68.788742 279.953064,68.944321 
z"/>
<path fill="#FFFFFF" opacity="1.000000" stroke="none" 
	d="
M306.001282,138.001663 
	C306.002533,138.003326 305.886444,138.058472 305.941406,138.028076 
	C305.996338,137.997696 306.000000,138.000000 306.001282,138.001663 
z"/>
<path fill="#73CAE7" opacity="1.000000" stroke="none" 
	d="
M339.653656,142.073257 
	C338.709839,144.055817 336.895538,145.872391 336.453705,143.069855 
	C335.673767,138.122787 336.235352,132.964233 337.259949,127.868645 
	C341.260254,132.104721 339.629639,137.024658 339.653656,142.073257 
z"/>
<path fill="#FFFFFF" opacity="1.000000" stroke="none" 
	d="
M262.275909,223.002380 
	C267.503876,223.001846 272.267456,223.001846 277.165771,223.001846 
	C277.716888,226.767944 276.405121,228.193634 273.002045,228.063675 
	C269.376923,227.925232 265.710144,228.333481 262.123718,227.938385 
	C260.105804,227.716064 258.213501,226.353668 256.264587,225.504852 
	C258.113556,224.670883 259.962555,223.836914 262.275909,223.002380 
z"/>
<path fill="#FFFFFF" opacity="1.000000" stroke="none" 
	d="
M329.068146,211.819504 
	C328.031586,216.061203 327.157166,220.354111 325.844696,224.508652 
	C325.515747,225.549973 323.809296,226.785751 322.684570,226.838531 
	C317.439423,227.084702 312.176270,226.947662 306.305023,226.947662 
	C307.632355,221.928131 308.822876,217.425919 310.499969,212.489197 
	C317.013733,211.976303 323.040924,211.897903 329.068146,211.819504 
z"/>
<path fill="#FFFFFF" opacity="1.000000" stroke="none" 
	d="
M329.167236,211.518860 
	C323.040924,211.897903 317.013733,211.976303 310.524994,212.100906 
	C310.907379,211.133438 311.706390,209.291672 312.602570,209.243103 
	C317.671600,208.968460 322.765686,209.066437 327.845490,209.223373 
	C328.339142,209.238632 328.793610,210.522964 329.167236,211.518860 
z"/>
<path fill="#FFFFFF" opacity="1.000000" stroke="none" 
	d="
M434.940063,263.069061 
	C437.348602,270.437469 436.255524,271.987488 428.641205,271.999817 
	C427.148987,272.002228 425.656738,272.002380 424.164520,272.004272 
	C416.549194,272.014038 416.099884,271.439331 418.276154,263.263184 
	C424.303192,262.997559 429.621613,263.033295 434.940063,263.069061 
z"/>
<path fill="#FFFFFF" opacity="1.000000" stroke="none" 
	d="
M435.052948,262.785339 
	C429.621613,263.033295 424.303192,262.997559 418.524109,262.938660 
	C421.686523,260.372711 431.691132,260.130615 435.052948,262.785339 
z"/>
<path fill="#FFFFFF" opacity="1.000000" stroke="none" 
	d="
M172.962479,283.969452 
	C160.968933,283.970703 160.968964,283.970703 160.977219,271.844818 
	C160.979019,269.197662 160.980499,266.550507 161.454102,263.431580 
	C168.851791,263.152405 176.052063,262.010223 181.973816,267.083557 
	C182.646439,270.402954 183.319046,273.722351 183.649780,277.557129 
	C179.859421,280.038177 176.410950,282.003815 172.962479,283.969452 
z"/>
<path fill="#FFFFFF" opacity="1.000000" stroke="none" 
	d="
M182.063995,266.791443 
	C176.052063,262.010223 168.851791,263.152405 161.462433,262.960632 
	C166.588379,258.809570 172.485504,261.226959 178.172989,262.479340 
	C179.720093,262.820007 180.838821,265.106110 182.063995,266.791443 
z"/>
<path fill="#FFFFFF" opacity="1.000000" stroke="none" 
	d="
M173.267914,284.175018 
	C176.410950,282.003815 179.859421,280.038177 183.646912,277.990173 
	C182.671661,283.390472 179.691467,285.243042 173.267914,284.175018 
z"/>
<path fill="#4BB6D8" opacity="1.000000" stroke="none" 
	d="
M484.997864,204.997864 
	C485.081207,204.734192 485.166656,204.472656 485.252106,204.211121 
	C485.245758,204.407288 485.239380,204.603439 485.118439,204.900970 
	C485.003845,205.002319 485.000000,205.000000 484.997864,204.997864 
z"/>
<path fill="#FFFFFF" opacity="1.000000" stroke="none" 
	d="
M332.123138,59.846298 
	C331.917755,59.581932 332.087708,59.336414 332.691589,59.189476 
	C332.742554,59.368832 332.533539,59.561195 332.123138,59.846298 
z"/>
</svg>