<svg viewBox="0 0 512 512" fill="none" xmlns="http://www.w3.org/2000/svg">
  <!-- Gear -->
  <path fill="#4A4A4A" fill-rule="evenodd" d="M 226.1 109.0 L 233.5 47.2 L 278.5 47.2 L 285.9 109.0 A 150 150 0 0 1 303.6 113.8 L 340.9 63.9 L 379.9 86.4 L 355.4 143.7 A 150 150 0 0 1 368.3 156.6 L 425.6 132.1 L 448.1 171.1 L 398.2 208.4 A 150 150 0 0 1 403.0 226.1 L 464.8 233.5 L 464.8 278.5 L 403.0 285.9 A 150 150 0 0 1 398.2 303.6 L 448.1 340.9 L 425.6 379.9 L 368.3 355.4 A 150 150 0 0 1 355.4 368.3 L 379.9 425.6 L 340.9 448.1 L 303.6 398.2 A 150 150 0 0 1 285.9 403.0 L 278.5 464.8 L 233.5 464.8 L 226.1 403.0 A 150 150 0 0 1 208.4 398.2 L 171.1 448.1 L 132.1 425.6 L 156.6 368.3 A 150 150 0 0 1 143.7 355.4 L 86.4 379.9 L 63.9 340.9 L 113.8 303.6 A 150 150 0 0 1 109.0 285.9 L 47.2 278.5 L 47.2 233.5 L 109.0 226.1 A 150 150 0 0 1 113.8 208.4 L 63.9 171.1 L 86.4 132.1 L 143.7 156.6 A 150 150 0 0 1 156.6 143.7 L 132.1 86.4 L 171.1 63.9 L 208.4 113.8 A 150 150 0 0 1 226.1 109.0 Z M 256 216 A 40 40 0 1 0 256 296 A 40 40 0 1 0 256 216 Z" />
  <!-- T Letter -->
  <g fill="#0EA5E9">
    <!-- Horizontal bar (top of T) -->
    <rect x="186" y="238.5" width="140" height="35" rx="8" />
    <!-- Vertical stem (down stroke of T) -->
    <rect x="233.5" y="273.5" width="45" height="180" rx="8" />
  </g>
</svg>