<svg version="1.1" id="Layer_1" xmlns="http://www.w3.org/2000/svg" xmlns:xlink="http://www.w3.org/1999/xlink" x="0px" y="0px"
	 width="100%" viewBox="0 0 623 305" enable-background="new 0 0 623 305" xml:space="preserve">
<path fill="#FEFEFE" opacity="1.000000" stroke="none" 
	d="
M458.000000,306.000000 
	C305.333344,306.000000 153.166672,306.000000 1.000000,306.000000 
	C1.000000,204.333328 1.000000,102.666664 1.000000,1.000000 
	C208.666672,1.000000 416.333344,1.000000 624.000000,1.000000 
	C624.000000,102.666664 624.000000,204.333328 624.000000,306.000000 
	C568.833313,306.000000 513.666687,306.000000 458.000000,306.000000 
M251.781693,209.631393 
	C252.185669,209.746704 252.589645,209.862000 253.914169,210.172775 
	C263.549347,210.172775 273.184540,210.172775 282.821381,210.172775 
	C283.401855,214.432816 281.522156,215.438187 277.966400,215.359024 
	C269.805634,215.177383 261.637299,215.245804 253.474014,215.357590 
	C252.136093,215.375900 249.884140,215.819031 249.620956,216.596237 
	C247.371307,223.239456 245.483047,230.005051 243.339523,237.230011 
	C255.148392,237.230011 265.805725,237.243240 276.462982,237.224899 
	C282.521942,237.214462 286.716980,234.553162 288.645538,228.883850 
	C290.689240,222.876129 292.442444,216.755554 294.015533,210.605743 
	C295.561249,204.563004 293.301483,201.944550 286.909180,201.922531 
	C278.077972,201.892120 269.246582,201.915298 260.415253,201.915344 
	C253.342422,201.915390 253.342422,201.915268 251.781693,209.631393 
M355.659058,56.189453 
	C358.923767,59.578011 362.131561,63.025059 365.501923,66.305054 
	C366.163971,66.949371 367.550110,67.375298 368.439056,67.175522 
	C374.226013,65.875076 379.967926,64.374130 385.907593,62.893154 
	C382.373199,56.333076 389.998199,55.158211 390.768036,50.857628 
	C385.351624,41.646664 385.394012,41.761581 376.201721,45.152927 
	C374.767975,45.681873 372.746307,44.617386 370.730499,44.239918 
	C372.541931,40.152180 373.874207,37.145672 375.169617,34.222393 
	C366.355347,27.300028 366.425781,27.391783 358.385681,33.564087 
	C357.141754,34.519028 354.913330,34.191517 352.775665,34.511669 
	C353.239868,30.350351 353.568298,27.406221 353.887482,24.544827 
	C342.869598,20.692568 342.965759,20.763401 336.801971,29.132442 
	C335.814972,30.472561 333.528900,30.855886 331.617859,31.791996 
	C330.506348,27.855642 329.673035,24.904610 328.867004,22.049999 
	C321.521271,22.963400 313.448730,21.751331 313.673615,32.723034 
	C313.726349,35.295219 308.424530,36.168533 306.618683,34.049839 
	C305.022125,32.176651 303.597748,30.156727 301.952637,28.013042 
	C299.203583,29.451134 296.833618,31.066139 294.218048,31.971581 
	C290.253937,33.343868 289.041290,35.914078 290.309967,39.606525 
	C291.749756,43.797188 290.089508,46.221405 286.073822,47.873085 
	C283.430237,46.379940 280.576202,44.767910 276.851166,42.663933 
	C275.572235,44.319599 274.611938,46.254192 273.071289,47.425148 
	C268.762024,50.700336 267.063324,54.062656 270.943939,58.895958 
	C271.671417,59.802032 271.610168,62.496441 270.848816,63.179531 
	C269.621704,64.280464 267.226318,65.244652 265.821777,64.776039 
	C260.403870,62.968460 257.421844,65.034363 255.458694,69.907524 
	C254.671219,71.862297 253.429153,73.633934 252.317169,75.626610 
	C253.488541,76.681786 254.632065,77.432533 255.397797,78.463799 
	C256.712341,80.234184 257.790955,82.179703 258.968628,84.051704 
	C257.041534,85.246445 255.115204,87.447968 253.187180,87.449463 
	C247.104309,87.454163 246.377213,91.105301 246.082184,96.416336 
	C263.208618,90.070259 279.809906,83.918770 297.220886,77.467262 
	C296.254944,84.531448 295.384247,90.899376 293.845306,97.395386 
	C291.271637,98.369240 287.107697,98.702576 286.410980,100.432396 
	C283.938324,106.571548 282.648468,113.187103 280.655701,120.565712 
	C285.263977,118.852547 288.649994,117.593773 292.112427,117.273911 
	C291.134949,125.496124 290.157471,133.718338 289.125244,142.401062 
	C272.166656,135.838440 263.997498,123.660233 262.565826,106.044746 
	C256.983215,108.288383 251.578506,110.329330 246.317856,112.691177 
	C245.327652,113.135750 244.316803,114.873978 244.343445,115.990746 
	C244.421127,119.247536 245.019318,122.491913 245.433731,125.908379 
	C248.247940,125.908379 250.750427,125.703728 253.193527,125.995758 
	C254.393402,126.139191 256.166290,126.995705 256.442963,127.905609 
	C256.760162,128.948730 256.030670,130.710144 255.180969,131.626404 
	C253.297958,133.656967 251.055481,135.354202 248.932800,137.210770 
	C250.880295,141.015411 252.606476,144.387741 254.409378,147.909912 
	C257.224518,146.918808 259.659760,145.838165 262.209015,145.261353 
	C263.422791,144.986694 265.347900,145.243607 266.041443,146.045868 
	C266.683472,146.788528 266.512177,148.767120 265.993866,149.870056 
	C264.887573,152.224197 263.324738,154.363785 261.833099,156.778870 
	C265.031982,159.525879 268.001465,162.075897 270.829712,164.504623 
	C273.586578,162.523453 275.789490,160.718674 278.220734,159.307205 
	C279.135620,158.776062 280.883728,158.704559 281.696289,159.250534 
	C282.489807,159.783707 283.019135,161.430267 282.880432,162.484955 
	C282.563416,164.895126 281.767334,167.242310 281.185425,169.537796 
	C291.178833,174.491119 291.108276,174.420563 297.889008,167.640717 
	C298.947357,166.582474 301.000336,166.098511 302.558685,166.164764 
	C303.195038,166.191833 303.722198,168.398483 304.328918,169.598419 
	C305.319275,171.557159 306.002594,174.891632 307.393951,175.224014 
	C314.981812,177.036774 317.268860,175.572311 320.373505,168.396805 
	C320.637207,167.787323 320.988831,167.215881 321.885101,166.975037 
	C328.164459,171.690689 334.443817,176.406357 341.228516,181.501511 
	C341.228516,152.609894 341.228516,124.553322 341.228516,96.695404 
	C350.861084,92.857040 360.202026,89.134880 370.081512,85.198135 
	C369.846436,87.517807 369.719635,89.155151 369.509491,90.781715 
	C367.799927,104.010986 361.266235,114.826477 352.633301,124.614304 
	C351.589508,125.797707 350.149872,127.272339 350.138306,128.622650 
	C350.058319,137.944000 350.012787,147.290009 350.697601,156.573410 
	C350.838135,158.478363 354.865417,161.992126 355.802063,161.606750 
	C359.394653,160.128677 362.918152,157.773422 365.489624,154.877258 
	C366.496460,153.743301 364.695038,150.327744 364.613556,147.936295 
	C364.564606,146.500168 364.956726,144.595978 365.905182,143.709824 
	C366.804199,142.869919 368.765137,142.672592 370.119537,142.929153 
	C372.187439,143.320892 374.135315,144.346237 376.364746,145.189835 
	C379.324280,141.559875 382.229767,137.996216 385.226501,134.320663 
	C384.531616,133.422714 383.959686,132.822769 383.549194,132.127518 
	C382.233734,129.899765 378.233887,128.196442 380.907898,125.131828 
	C382.239716,123.605453 385.401245,123.726494 387.690491,122.967812 
	C389.402588,122.400414 391.811279,122.083611 392.565796,120.839874 
	C394.504486,117.644135 395.695404,113.994736 397.240082,110.398926 
	C394.214478,108.576653 391.575775,106.987419 389.482513,105.726677 
	C388.787048,100.443260 392.344177,100.316940 395.239136,99.103012 
	C397.073639,98.333771 399.376038,96.794998 399.871429,95.126991 
	C400.782318,92.059898 400.514984,88.642876 400.706635,85.841217 
	C397.247986,84.457420 394.195526,83.236130 391.143036,82.014824 
	C392.770386,79.338783 394.397705,76.662735 396.013550,74.005615 
	C395.238312,74.110588 393.947968,74.185402 392.705780,74.470268 
	C386.250488,75.950661 379.806244,77.479568 373.360352,79.000832 
	C354.682922,83.408806 335.996002,87.778214 317.349792,92.314636 
	C315.880249,92.672165 313.701080,94.080116 313.560852,95.211662 
	C313.085846,99.045341 313.379608,102.974281 313.379608,107.440834 
	C319.555023,105.054451 324.855103,103.006325 331.007111,100.628998 
	C328.600464,115.084274 326.347015,128.619370 323.329346,142.298370 
	C321.722717,142.730209 320.130035,143.460175 318.506744,143.536118 
	C314.206909,143.737335 312.808655,145.842850 313.348907,149.965042 
	C313.674469,152.449203 313.408813,155.010864 313.408813,157.537720 
	C312.755035,157.762817 312.101288,157.987930 311.447510,158.213028 
	C309.825256,155.650055 306.831757,153.107132 306.793915,150.520996 
	C306.435699,126.028656 306.537933,101.528687 306.694794,77.032104 
	C306.703369,75.693108 308.090820,73.606468 309.315857,73.147537 
	C323.168671,67.957886 337.115234,63.018414 351.721130,58.008850 
	C352.815063,57.338776 353.908997,56.668701 355.659058,56.189453 
M431.496063,222.357178 
	C432.066071,220.233383 432.636078,218.109589 433.436157,215.128571 
	C423.105927,215.128571 413.708435,215.128571 404.310944,215.128571 
	C404.097290,214.492905 403.883636,213.857224 403.669983,213.221558 
	C405.370605,212.336990 407.042267,210.761810 408.776886,210.689117 
	C415.757263,210.396591 422.757141,210.568329 429.749817,210.568970 
	C437.842987,210.569733 437.842987,210.569931 439.341034,201.928650 
	C427.321136,201.928650 415.352234,201.588150 403.430817,202.189377 
	C400.748901,202.324631 396.948608,205.211914 395.885651,207.759583 
	C392.916687,214.875641 390.635895,222.375107 389.011078,229.922913 
	C387.872253,235.213287 390.194977,237.203415 395.634979,237.234161 
	C404.625244,237.284958 413.616058,237.247574 422.606628,237.246582 
	C430.511078,237.245712 430.921814,236.816147 430.990143,227.887070 
	C420.808563,227.887070 410.620087,227.887070 400.469299,227.887070 
	C400.393127,223.900970 402.023499,222.857712 405.368317,222.932571 
	C413.843445,223.122284 422.326843,222.940140 431.496063,222.357178 
M340.071777,203.290222 
	C338.850555,202.837250 337.633881,202.006424 336.407379,201.991684 
	C327.418427,201.883698 318.423187,201.772675 309.438965,202.008636 
	C304.438965,202.139969 300.953247,205.209122 299.375854,209.753036 
	C297.201263,216.017349 295.358612,222.423019 293.822784,228.875015 
	C292.496613,234.446182 294.806305,237.100479 300.473724,237.150925 
	C308.464600,237.222046 316.460968,237.006241 324.446625,237.222260 
	C330.312500,237.380920 334.118164,234.427841 336.003143,229.448441 
	C338.404755,223.104370 340.213043,216.508667 341.828278,209.911545 
	C342.272491,208.097305 341.115173,205.890991 340.071777,203.290222 
M203.085388,212.537537 
	C200.753693,220.558304 198.421997,228.579056 195.926315,237.163971 
	C198.168503,237.163971 199.675842,236.955750 201.104950,237.201828 
	C205.979538,238.041199 208.064438,235.971588 209.145248,231.204819 
	C210.746460,224.142868 213.187668,217.271378 215.318100,210.162552 
	C220.608994,210.162552 225.586853,210.151520 230.564560,210.173645 
	C231.375046,210.177246 232.184875,210.327515 233.540024,210.465485 
	C233.062195,212.377167 232.637360,214.076813 232.136978,216.078735 
	C228.641815,216.078735 225.356247,216.078735 221.497543,216.078735 
	C222.438187,220.220581 223.224823,223.901810 224.114044,227.558090 
	C226.584824,237.717392 226.601913,237.716949 237.079498,237.045303 
	C237.339951,237.028610 237.580215,236.697098 238.075699,236.330612 
	C236.821548,232.420975 235.537842,228.419235 234.206650,224.269440 
	C241.824417,222.316956 243.998550,216.511215 245.251862,210.051514 
	C246.270203,204.802933 244.133682,202.029831 238.805130,201.949127 
	C231.488632,201.838303 224.169189,201.922577 216.850998,201.922760 
	C206.284210,201.923019 206.284210,201.922836 203.085388,212.537537 
M184.249893,224.865433 
	C183.294235,225.993088 182.385025,228.046021 181.375305,228.096680 
	C175.291138,228.401947 169.183945,228.248398 162.442368,228.248398 
	C165.072464,219.179947 167.500473,210.808334 170.079697,201.915283 
	C167.822601,201.915283 165.973969,202.175507 164.227524,201.863571 
	C160.004395,201.109253 158.424805,203.129135 157.449799,206.951553 
	C155.729385,213.696198 153.455826,220.297821 151.518250,226.989548 
	C149.505020,233.942612 151.910706,237.194046 159.005295,237.222488 
	C166.487381,237.252502 173.969727,237.247879 181.451859,237.222778 
	C187.670837,237.201935 192.121674,234.384293 193.980133,228.622787 
	C196.775070,219.958145 199.192642,211.171783 201.924728,201.915115 
	C199.866745,201.915115 198.189499,202.164810 196.614944,201.868622 
	C191.758301,200.955032 189.858719,203.231735 188.947006,207.743958 
	C187.832550,213.259567 186.061279,218.642471 184.249893,224.865433 
M484.129028,227.598465 
	C483.395660,230.614990 482.662323,233.631500 481.928955,236.648056 
	C491.581726,238.710541 492.173706,238.382843 494.696167,229.717682 
	C494.974548,228.761368 494.934021,227.587402 495.495483,226.869492 
	C496.219574,225.943680 497.378296,224.791733 498.390015,224.751678 
	C503.682922,224.542191 508.988525,224.653839 514.622192,224.653839 
	C513.522217,229.043137 512.549927,232.923004 511.500031,237.112381 
	C513.530396,237.223907 514.865479,237.153458 516.142456,237.392822 
	C521.091736,238.320511 523.155762,236.012924 524.239319,231.343307 
	C526.037903,223.592545 528.440186,215.981995 530.581604,208.310547 
	C531.134521,206.329651 531.663208,204.341980 532.222290,202.286850 
	C521.945618,201.157028 521.946899,201.157425 519.193726,209.944504 
	C518.568420,211.940231 517.931152,213.932236 517.372192,215.696289 
	C511.073456,215.696289 505.167786,215.696289 498.951691,215.696289 
	C500.243378,210.988831 501.436676,206.639877 502.749603,201.854996 
	C500.624115,201.854996 499.101807,202.073944 497.665710,201.814880 
	C492.910156,200.957001 490.898193,203.022125 489.862946,207.610825 
	C488.400543,214.092972 486.172455,220.402390 484.129028,227.598465 
M480.086975,210.567627 
	C486.987213,211.495850 485.604126,205.912720 487.245483,201.895111 
	C475.017883,201.895111 463.363739,201.451599 451.785034,202.190491 
	C448.685730,202.388260 444.380646,205.575089 443.130493,208.469910 
	C440.210083,215.232422 438.378143,222.565033 436.933197,229.831375 
	C435.874542,235.155075 438.130371,237.195633 443.498077,237.230286 
	C452.482697,237.288300 461.467926,237.246017 470.452911,237.245712 
	C478.079590,237.245453 478.894592,236.389481 478.827271,227.830719 
	C468.677429,227.830719 458.511353,227.830719 447.965546,227.830719 
	C449.464264,222.903931 450.978241,218.705521 451.974701,214.387680 
	C452.683167,211.317810 454.242249,210.446732 457.211487,210.512955 
	C464.528961,210.676193 471.852478,210.566650 480.086975,210.567627 
M359.569580,237.242462 
	C364.859497,238.167282 367.719757,236.311005 368.698090,230.667496 
	C369.623077,225.331985 371.720703,220.208557 373.116211,214.942474 
	C373.933655,211.857651 375.219849,209.848068 378.871826,210.524109 
	C380.159485,210.762482 381.528442,210.561371 382.860260,210.561325 
	C390.631500,210.561050 390.631500,210.561111 391.829468,201.860962 
	C379.650970,201.860962 367.531555,201.859421 355.412140,201.861572 
	C348.910522,201.862717 347.743164,203.231628 348.340851,210.735352 
	C352.544006,210.735352 356.794983,210.735352 361.649567,210.735352 
	C359.191925,219.783310 356.912201,228.176208 354.541870,236.902695 
	C356.383881,237.055206 357.516174,237.148956 359.569580,237.242462 
M152.159851,208.671829 
	C152.779678,206.552704 153.399521,204.433578 154.133240,201.925079 
	C141.629318,201.925079 129.836075,201.924759 118.042831,201.925171 
	C110.756088,201.925430 110.385170,202.302582 110.010124,210.608063 
	C114.591362,210.608063 119.160454,210.608063 124.179466,210.608063 
	C121.576332,219.688232 119.151443,228.146637 116.567162,237.161041 
	C119.489685,237.161041 121.497643,236.926559 123.429634,237.209961 
	C127.429642,237.796631 129.340744,236.392990 130.235596,232.282516 
	C131.501953,226.465500 133.714508,220.860535 135.164917,215.075241 
	C136.033905,211.609070 137.547897,210.145523 141.323029,210.365005 
	C144.833389,210.569092 148.399658,209.811707 152.159851,208.671829 
M309.467285,284.110748 
	C305.967865,284.110779 302.438568,283.826691 298.977417,284.190613 
	C295.494720,284.556763 293.660706,283.496735 293.409607,279.227020 
	C291.627167,280.263885 289.680420,281.328308 289.538605,282.594818 
	C289.222961,285.413727 290.381195,288.035583 293.841339,288.131622 
	C300.665771,288.321014 307.499298,288.479675 314.322266,288.333649 
	C320.160675,288.208740 321.174011,286.654083 321.110718,279.322571 
	C321.052673,272.600983 319.903748,271.101074 314.087189,270.959320 
	C307.944519,270.809601 301.795349,270.925720 295.449829,270.925720 
	C295.449829,268.079590 295.449829,265.651459 295.449829,262.628296 
	C301.121399,262.628296 306.593262,262.425964 312.034973,262.742401 
	C313.842133,262.847504 315.571777,264.285004 317.336884,265.113373 
	C317.449432,265.773193 317.561951,266.433014 317.674500,267.092865 
	C318.655029,265.988525 320.669250,264.253357 320.444244,263.884674 
	C319.207855,261.858582 317.580292,258.812988 315.798645,258.606598 
	C309.711273,257.901489 303.498718,258.055695 297.343292,258.224548 
	C291.584808,258.382507 290.268738,260.293945 290.381622,267.230927 
	C290.484985,273.578522 291.598663,274.988495 297.318420,275.135498 
	C303.457733,275.293304 309.604279,275.171112 316.068726,275.171112 
	C316.068726,278.253967 316.068726,280.973450 316.068726,284.111053 
	C314.053680,284.111053 312.254974,284.111053 309.467285,284.110748 
M581.953247,282.080841 
	C580.668457,281.218170 579.383667,280.355499 577.524963,279.107422 
	C576.981201,286.660095 577.977112,288.084381 583.556030,288.306274 
	C589.536377,288.544159 595.534180,288.524445 601.519836,288.400543 
	C607.943848,288.267548 608.989441,286.900757 608.957336,279.512268 
	C608.926270,272.353333 607.778625,271.015045 601.170776,270.910767 
	C595.231384,270.817047 589.289307,270.890991 583.235046,270.890991 
	C583.235046,267.911407 583.235046,265.519043 583.235046,262.632507 
	C588.813904,262.632507 594.113953,262.855408 599.383301,262.550232 
	C602.624573,262.362488 604.705750,262.994080 605.211914,267.183655 
	C606.776733,265.891083 608.503235,264.177155 608.167236,263.523712 
	C607.169434,261.583099 605.483093,258.758789 603.845398,258.603424 
	C597.414795,257.993317 590.892273,258.067566 584.417969,258.292664 
	C579.300110,258.470551 577.934021,260.725372 578.058838,267.432709 
	C578.167786,273.286011 579.498169,274.970917 584.783264,275.111725 
	C591.082703,275.279602 597.390015,275.151276 603.981445,275.151276 
	C603.981445,278.240387 603.981445,280.967407 603.981445,284.106781 
	C598.299622,284.106781 592.841431,284.204315 587.390259,284.051636 
	C585.587830,284.001160 583.803406,283.305786 581.953247,282.080841 
M171.267700,288.425537 
	C173.583908,288.265503 175.932175,288.295074 178.210281,287.909729 
	C184.965866,286.767059 189.246307,281.568817 189.684753,274.223907 
	C190.093277,267.380493 186.059769,260.178345 179.863434,259.252808 
	C171.786163,258.046265 163.502106,258.223999 155.210159,257.801147 
	C155.210159,268.583557 155.210159,278.301270 155.210159,288.430695 
	C160.413910,288.430695 165.368332,288.430695 171.267700,288.425537 
M415.879120,287.768250 
	C415.879120,284.183563 415.879120,280.598877 415.879120,277.455109 
	C422.423462,275.513489 426.750153,277.574524 430.346802,281.909607 
	C431.503876,283.304352 433.195190,284.262146 434.320038,285.676056 
	C436.921997,288.946747 440.126648,288.841522 444.270630,287.839722 
	C439.933075,284.184174 436.018768,280.885315 432.859589,278.222870 
	C435.963531,276.527130 440.343048,275.597168 441.286438,273.272644 
	C442.664124,269.878174 441.790283,265.460419 441.394501,261.527313 
	C441.286011,260.449249 439.479218,258.716492 438.416443,258.689819 
	C429.366486,258.462555 420.308411,258.559723 411.194702,258.559723 
	C411.194702,268.620361 411.194702,278.231415 411.194702,288.294891 
	C412.645447,288.294891 413.928772,288.294891 415.879120,287.768250 
M522.124756,283.325653 
	C522.124756,280.565613 522.124756,277.805573 522.124756,275.096649 
	C536.191833,274.282837 536.191833,274.282837 535.908325,270.695923 
	C531.381042,270.695923 526.807495,270.695923 522.314697,270.695923 
	C522.314697,267.748016 522.314697,265.308044 522.314697,262.525635 
	C524.556091,262.525635 526.529175,262.525482 528.502258,262.525635 
	C533.499573,262.526031 538.501282,262.633545 543.490112,262.428162 
	C544.385498,262.391266 545.227722,261.062958 546.094421,260.330872 
	C545.385559,259.610718 544.686584,258.275513 543.966309,258.263947 
	C535.047974,258.120758 526.126587,258.170441 517.334839,258.170441 
	C517.334839,268.677307 517.334839,278.401276 517.334839,288.425964 
	C526.338928,288.425964 534.986267,288.524689 543.625000,288.295898 
	C544.657410,288.268585 545.642700,286.459137 546.649841,285.475708 
	C546.318970,284.997528 545.988098,284.519318 545.657227,284.041138 
	C538.026672,284.041138 530.396057,284.041138 522.124756,283.325653 
M254.102448,258.577881 
	C252.717590,258.466492 251.332748,258.355103 249.494598,258.207245 
	C249.494598,267.076874 249.494598,275.325500 249.494598,283.775818 
	C242.058914,283.775818 235.038727,283.775818 227.646759,283.775818 
	C227.646759,275.179382 227.646759,266.923065 227.646759,258.421051 
	C225.871780,258.421051 224.472885,258.421051 222.811371,258.421051 
	C222.811371,266.804718 222.786911,274.924286 222.822891,283.043579 
	C222.838211,286.502838 224.714554,288.228546 228.127655,288.257721 
	C234.773407,288.314545 241.420486,288.272552 248.065186,288.381866 
	C252.682388,288.457825 254.753784,286.211639 254.714920,281.706329 
	C254.650421,274.231232 254.630280,266.755737 254.102448,258.577881 
M90.095695,269.905365 
	C90.095695,268.596313 90.095695,267.287292 90.095695,265.315033 
	C98.531387,272.756989 106.107460,279.509705 113.784386,286.145721 
	C115.077095,287.263184 116.805420,287.876678 118.803009,288.983795 
	C118.803009,278.048187 118.803009,268.297546 118.803009,258.631531 
	C115.311424,257.418030 114.389488,258.783936 114.459618,261.866394 
	C114.597244,267.916077 114.500092,273.971069 114.500092,281.274384 
	C106.047935,273.795258 98.527298,267.081451 90.920120,260.467133 
	C89.653717,259.366028 88.010429,258.698334 85.612312,257.281525 
	C85.612312,267.786407 85.498451,276.762787 85.760292,285.728210 
	C85.792053,286.815857 87.848831,287.844330 88.967094,288.900238 
	C89.347939,288.521606 89.728783,288.142944 90.109627,287.764313 
	C90.109627,282.115662 90.109627,276.467010 90.095695,269.905365 
M369.550140,262.864899 
	C373.657715,262.864899 377.765320,262.864899 382.384735,262.864899 
	C382.159485,260.796783 382.014557,259.466034 381.861603,258.061768 
	C371.996521,258.061768 362.667358,257.971008 353.343903,258.161163 
	C351.969421,258.189209 350.622101,259.548340 349.262238,260.291656 
	C350.557861,261.092468 351.795471,262.439545 353.160767,262.584595 
	C356.375183,262.926086 359.650543,262.694061 363.403778,262.694061 
	C363.403778,271.729095 363.403778,279.966553 363.403778,288.616516 
	C365.518280,288.407867 367.062256,288.255493 368.866943,288.077393 
	C368.866943,279.562653 368.866943,271.571655 369.550140,262.864899 
M46.754089,288.416199 
	C49.695465,288.845123 49.863110,287.085358 49.836159,284.814148 
	C49.745823,277.200806 49.667725,269.582581 49.852436,261.972717 
	C49.949188,257.986633 48.232395,257.519958 44.745369,258.747284 
	C44.745369,268.031738 44.722115,277.282867 44.797665,286.533173 
	C44.802704,287.150330 45.557194,287.761353 46.754089,288.416199 
M481.115265,286.882355 
	C481.115265,277.449402 481.115265,268.016449 481.115265,256.812714 
	C478.624115,258.547485 476.240051,259.413269 476.211548,260.350555 
	C475.931244,269.582520 476.042236,278.826324 476.042236,288.686432 
	C478.177307,288.267181 479.553192,287.997040 481.115265,286.882355 
z"/>
<path fill="#54473B" opacity="1.000000" stroke="none" 
	d="
M321.299622,166.626770 
	C320.988831,167.215881 320.637207,167.787323 320.373505,168.396805 
	C317.268860,175.572311 314.981812,177.036774 307.393951,175.224014 
	C306.002594,174.891632 305.319275,171.557159 304.328918,169.598419 
	C303.722198,168.398483 303.195038,166.191833 302.558685,166.164764 
	C301.000336,166.098511 298.947357,166.582474 297.889008,167.640717 
	C291.108276,174.420563 291.178833,174.491119 281.185425,169.537796 
	C281.767334,167.242310 282.563416,164.895126 282.880432,162.484955 
	C283.019135,161.430267 282.489807,159.783707 281.696289,159.250534 
	C280.883728,158.704559 279.135620,158.776062 278.220734,159.307205 
	C275.789490,160.718674 273.586578,162.523453 270.829712,164.504623 
	C268.001465,162.075897 265.031982,159.525879 261.833099,156.778870 
	C263.324738,154.363785 264.887573,152.224197 265.993866,149.870056 
	C266.512177,148.767120 266.683472,146.788528 266.041443,146.045868 
	C265.347900,145.243607 263.422791,144.986694 262.209015,145.261353 
	C259.659760,145.838165 257.224518,146.918808 254.409378,147.909912 
	C252.606476,144.387741 250.880295,141.015411 248.932800,137.210770 
	C251.055481,135.354202 253.297958,133.656967 255.180969,131.626404 
	C256.030670,130.710144 256.760162,128.948730 256.442963,127.905609 
	C256.166290,126.995705 254.393402,126.139191 253.193527,125.995758 
	C250.750427,125.703728 248.247940,125.908379 245.433731,125.908379 
	C245.019318,122.491913 244.421127,119.247536 244.343445,115.990746 
	C244.316803,114.873978 245.327652,113.135750 246.317856,112.691177 
	C251.578506,110.329330 256.983215,108.288383 262.565826,106.044746 
	C263.997498,123.660233 272.166656,135.838440 289.125244,142.401062 
	C290.157471,133.718338 291.134949,125.496124 292.298462,116.525009 
	C293.160828,109.606514 293.837189,103.436905 294.513519,97.267303 
	C295.384247,90.899376 296.254944,84.531448 297.220886,77.467262 
	C279.809906,83.918770 263.208618,90.070259 246.082184,96.416336 
	C246.377213,91.105301 247.104309,87.454163 253.187180,87.449463 
	C255.115204,87.447968 257.041534,85.246445 258.968628,84.051704 
	C257.790955,82.179703 256.712341,80.234184 255.397797,78.463799 
	C254.632065,77.432533 253.488541,76.681786 252.317169,75.626610 
	C253.429153,73.633934 254.671219,71.862297 255.458694,69.907524 
	C257.421844,65.034363 260.403870,62.968460 265.821777,64.776039 
	C267.226318,65.244652 269.621704,64.280464 270.848816,63.179531 
	C271.610168,62.496441 271.671417,59.802032 270.943939,58.895958 
	C267.063324,54.062656 268.762024,50.700336 273.071289,47.425148 
	C274.611938,46.254192 275.572235,44.319599 276.851166,42.663933 
	C280.576202,44.767910 283.430237,46.379940 286.073822,47.873085 
	C290.089508,46.221405 291.749756,43.797188 290.309967,39.606525 
	C289.041290,35.914078 290.253937,33.343868 294.218048,31.971581 
	C296.833618,31.066139 299.203583,29.451134 301.952637,28.013042 
	C303.597748,30.156727 305.022125,32.176651 306.618683,34.049839 
	C308.424530,36.168533 313.726349,35.295219 313.673615,32.723034 
	C313.448730,21.751331 321.521271,22.963400 328.867004,22.049999 
	C329.673035,24.904610 330.506348,27.855642 331.617859,31.791996 
	C333.528900,30.855886 335.814972,30.472561 336.801971,29.132442 
	C342.965759,20.763401 342.869598,20.692568 353.887482,24.544827 
	C353.568298,27.406221 353.239868,30.350351 352.775665,34.511669 
	C354.913330,34.191517 357.141754,34.519028 358.385681,33.564087 
	C366.425781,27.391783 366.355347,27.300028 375.169617,34.222393 
	C373.874207,37.145672 372.541931,40.152180 370.730499,44.239918 
	C372.746307,44.617386 374.767975,45.681873 376.201721,45.152927 
	C385.394012,41.761581 385.351624,41.646664 390.768036,50.857628 
	C389.998199,55.158211 382.373199,56.333076 385.907593,62.893154 
	C379.967926,64.374130 374.226013,65.875076 368.439056,67.175522 
	C367.550110,67.375298 366.163971,66.949371 365.501923,66.305054 
	C362.131561,63.025059 358.923767,59.578011 355.260132,55.738308 
	C353.669739,54.058117 352.678680,52.485279 351.254639,51.655357 
	C341.391266,45.907024 330.687561,44.271114 319.503357,45.926384 
	C302.420074,48.454723 288.410309,56.562267 277.207520,69.818031 
	C279.239563,70.045212 281.121155,69.842766 282.972473,69.483902 
	C304.036163,65.400925 325.088531,61.258911 346.169373,57.267056 
	C347.690247,56.979065 349.409576,57.739124 351.036652,58.011894 
	C337.115234,63.018414 323.168671,67.957886 309.315857,73.147537 
	C308.090820,73.606468 306.703369,75.693108 306.694794,77.032104 
	C306.537933,101.528687 306.435699,126.028656 306.793915,150.520996 
	C306.831757,153.107132 309.825256,155.650055 311.447510,158.213028 
	C312.101288,157.987930 312.755035,157.762817 313.408813,157.537720 
	C313.408813,155.010864 313.674469,152.449203 313.348907,149.965042 
	C312.808655,145.842850 314.206909,143.737335 318.506744,143.536118 
	C320.130035,143.460175 321.722717,142.730209 323.735168,142.641052 
	C323.193848,150.864731 322.246735,158.745758 321.299622,166.626770 
z"/>
<path fill="#03B7DF" opacity="1.000000" stroke="none" 
	d="
M321.592346,166.800903 
	C322.246735,158.745758 323.193848,150.864731 324.117249,142.569092 
	C326.347015,128.619370 328.600464,115.084274 331.007111,100.628998 
	C324.855103,103.006325 319.555023,105.054451 313.379608,107.440834 
	C313.379608,102.974281 313.085846,99.045341 313.560852,95.211662 
	C313.701080,94.080116 315.880249,92.672165 317.349792,92.314636 
	C335.996002,87.778214 354.682922,83.408806 373.360352,79.000832 
	C379.806244,77.479568 386.250488,75.950661 392.705780,74.470268 
	C393.947968,74.185402 395.238312,74.110588 396.013550,74.005615 
	C394.397705,76.662735 392.770386,79.338783 391.143036,82.014832 
	C394.195526,83.236130 397.247986,84.457420 400.706635,85.841217 
	C400.514984,88.642876 400.782318,92.059898 399.871429,95.126991 
	C399.376038,96.794998 397.073639,98.333771 395.239136,99.103012 
	C392.344177,100.316940 388.787048,100.443260 389.482513,105.726677 
	C391.575775,106.987419 394.214478,108.576653 397.240082,110.398926 
	C395.695404,113.994736 394.504486,117.644135 392.565796,120.839874 
	C391.811279,122.083611 389.402588,122.400414 387.690491,122.967812 
	C385.401245,123.726494 382.239716,123.605453 380.907898,125.131828 
	C378.233887,128.196442 382.233734,129.899765 383.549194,132.127518 
	C383.959686,132.822769 384.531616,133.422714 385.226501,134.320663 
	C382.229767,137.996216 379.324280,141.559875 376.364746,145.189835 
	C374.135315,144.346237 372.187439,143.320892 370.119537,142.929153 
	C368.765137,142.672592 366.804199,142.869919 365.905182,143.709824 
	C364.956726,144.595978 364.564606,146.500168 364.613556,147.936295 
	C364.695038,150.327744 366.496460,153.743301 365.489624,154.877258 
	C362.918152,157.773422 359.394653,160.128677 355.802063,161.606750 
	C354.865417,161.992126 350.838135,158.478363 350.697601,156.573410 
	C350.012787,147.290009 350.058319,137.944000 350.138306,128.622650 
	C350.149872,127.272339 351.589508,125.797707 352.633301,124.614304 
	C361.266235,114.826477 367.799927,104.010986 369.509491,90.781715 
	C369.719635,89.155151 369.846436,87.517807 370.081512,85.198135 
	C360.202026,89.134880 350.861084,92.857040 341.228516,96.695404 
	C341.228516,124.553322 341.228516,152.609894 341.228516,181.501511 
	C334.443817,176.406357 328.164459,171.690689 321.592346,166.800903 
z"/>
<path fill="#56493D" opacity="1.000000" stroke="none" 
	d="
M251.952362,208.986984 
	C253.342422,201.915268 253.342422,201.915390 260.415253,201.915344 
	C269.246582,201.915298 278.077972,201.892120 286.909180,201.922531 
	C293.301483,201.944550 295.561249,204.563004 294.015533,210.605743 
	C292.442444,216.755554 290.689240,222.876129 288.645538,228.883850 
	C286.716980,234.553162 282.521942,237.214462 276.462982,237.224899 
	C265.805725,237.243240 255.148392,237.230011 243.339523,237.230011 
	C245.483047,230.005051 247.371307,223.239456 249.620956,216.596237 
	C249.884140,215.819031 252.136093,215.375900 253.474014,215.357590 
	C261.637299,215.245804 269.805634,215.177383 277.966400,215.359024 
	C281.522156,215.438187 283.401855,214.432816 282.821381,210.172775 
	C273.184540,210.172775 263.549347,210.172775 253.348480,209.848145 
	C252.505997,209.344666 252.229172,209.165833 251.952362,208.986984 
M277.669067,222.882782 
	C272.052612,222.844925 266.436157,222.777939 260.819702,222.777557 
	C255.419739,222.777191 254.935593,223.395065 255.487503,229.749603 
	C260.362762,229.749603 265.360077,230.270355 270.181519,229.573837 
	C273.624268,229.076462 279.169067,229.910080 277.669067,222.882782 
z"/>
<path fill="#05B9E0" opacity="1.000000" stroke="none" 
	d="
M431.151489,222.632050 
	C422.326843,222.940140 413.843445,223.122284 405.368317,222.932571 
	C402.023499,222.857712 400.393127,223.900970 400.469299,227.887070 
	C410.620087,227.887070 420.808563,227.887070 430.990143,227.887070 
	C430.921814,236.816147 430.511078,237.245712 422.606628,237.246582 
	C413.616058,237.247574 404.625244,237.284958 395.634979,237.234161 
	C390.194977,237.203415 387.872253,235.213287 389.011078,229.922913 
	C390.635895,222.375107 392.916687,214.875641 395.885651,207.759583 
	C396.948608,205.211914 400.748901,202.324631 403.430817,202.189377 
	C415.352234,201.588150 427.321136,201.928650 439.341034,201.928650 
	C437.842987,210.569931 437.842987,210.569733 429.749817,210.568970 
	C422.757141,210.568329 415.757263,210.396591 408.776886,210.689117 
	C407.042267,210.761810 405.370605,212.336990 403.669983,213.221558 
	C403.883636,213.857224 404.097290,214.492905 404.310944,215.128571 
	C413.708435,215.128571 423.105927,215.128571 433.436157,215.128571 
	C432.636078,218.109589 432.066071,220.233383 431.151489,222.632050 
z"/>
<path fill="#55483C" opacity="1.000000" stroke="none" 
	d="
M340.382263,203.577393 
	C341.115173,205.890991 342.272491,208.097305 341.828278,209.911545 
	C340.213043,216.508667 338.404755,223.104370 336.003143,229.448441 
	C334.118164,234.427841 330.312500,237.380920 324.446625,237.222260 
	C316.460968,237.006241 308.464600,237.222046 300.473724,237.150925 
	C294.806305,237.100479 292.496613,234.446182 293.822784,228.875015 
	C295.358612,222.423019 297.201263,216.017349 299.375854,209.753036 
	C300.953247,205.209122 304.438965,202.139969 309.438965,202.008636 
	C318.423187,201.772675 327.418427,201.883698 336.407379,201.991684 
	C337.633881,202.006424 338.850555,202.837250 340.382263,203.577393 
M307.597748,219.068085 
	C306.790070,221.983276 305.982361,224.898483 305.037415,228.309021 
	C311.594452,228.309021 317.376770,228.353516 323.156921,228.261078 
	C324.024536,228.247223 325.462677,227.783951 325.653625,227.204529 
	C327.425262,221.828720 328.981201,216.381821 330.768921,210.388519 
	C325.995392,210.388519 322.363007,210.388580 318.730591,210.388519 
	C310.251404,210.388382 310.251404,210.388351 307.597748,219.068085 
z"/>
<path fill="#54473B" opacity="1.000000" stroke="none" 
	d="
M203.186707,212.144592 
	C206.284210,201.922836 206.284210,201.923019 216.850998,201.922760 
	C224.169189,201.922577 231.488632,201.838303 238.805130,201.949127 
	C244.133682,202.029831 246.270203,204.802933 245.251862,210.051514 
	C243.998550,216.511215 241.824417,222.316956 234.206650,224.269440 
	C235.537842,228.419235 236.821548,232.420975 238.075699,236.330612 
	C237.580215,236.697098 237.339951,237.028610 237.079498,237.045303 
	C226.601913,237.716949 226.584824,237.717392 224.114044,227.558090 
	C223.224823,223.901810 222.438187,220.220581 221.497543,216.078735 
	C225.356247,216.078735 228.641815,216.078735 232.136978,216.078735 
	C232.637360,214.076813 233.062195,212.377167 233.540024,210.465485 
	C232.184875,210.327515 231.375046,210.177246 230.564560,210.173645 
	C225.586853,210.151520 220.608994,210.162552 215.318100,210.162552 
	C213.187668,217.271378 210.746460,224.142868 209.145248,231.204819 
	C208.064438,235.971588 205.979538,238.041199 201.104950,237.201828 
	C199.675842,236.955750 198.168503,237.163971 195.926315,237.163971 
	C198.421997,228.579056 200.753693,220.558304 203.186707,212.144592 
z"/>
<path fill="#55493D" opacity="1.000000" stroke="none" 
	d="
M184.411957,224.474091 
	C186.061279,218.642471 187.832550,213.259567 188.947006,207.743958 
	C189.858719,203.231735 191.758301,200.955032 196.614944,201.868622 
	C198.189499,202.164810 199.866745,201.915115 201.924728,201.915115 
	C199.192642,211.171783 196.775070,219.958145 193.980133,228.622787 
	C192.121674,234.384293 187.670837,237.201935 181.451859,237.222778 
	C173.969727,237.247879 166.487381,237.252502 159.005295,237.222488 
	C151.910706,237.194046 149.505020,233.942612 151.518250,226.989548 
	C153.455826,220.297821 155.729385,213.696198 157.449799,206.951553 
	C158.424805,203.129135 160.004395,201.109253 164.227524,201.863571 
	C165.973969,202.175507 167.822601,201.915283 170.079697,201.915283 
	C167.500473,210.808334 165.072464,219.179947 162.442368,228.248398 
	C169.183945,228.248398 175.291138,228.401947 181.375305,228.096680 
	C182.385025,228.046021 183.294235,225.993088 184.411957,224.474091 
z"/>
<path fill="#06B9E0" opacity="1.000000" stroke="none" 
	d="
M484.200348,227.192047 
	C486.172455,220.402390 488.400543,214.092972 489.862946,207.610825 
	C490.898193,203.022125 492.910156,200.957001 497.665710,201.814880 
	C499.101807,202.073944 500.624115,201.854996 502.749603,201.854996 
	C501.436676,206.639877 500.243378,210.988831 498.951691,215.696289 
	C505.167786,215.696289 511.073456,215.696289 517.372192,215.696289 
	C517.931152,213.932236 518.568420,211.940231 519.193726,209.944504 
	C521.946899,201.157425 521.945618,201.157028 532.222290,202.286850 
	C531.663208,204.341980 531.134521,206.329651 530.581604,208.310547 
	C528.440186,215.981995 526.037903,223.592545 524.239319,231.343307 
	C523.155762,236.012924 521.091736,238.320511 516.142456,237.392822 
	C514.865479,237.153458 513.530396,237.223907 511.500031,237.112381 
	C512.549927,232.923004 513.522217,229.043137 514.622192,224.653839 
	C508.988525,224.653839 503.682922,224.542191 498.390015,224.751678 
	C497.378296,224.791733 496.219574,225.943680 495.495483,226.869492 
	C494.934021,227.587402 494.974548,228.761368 494.696167,229.717682 
	C492.173706,238.382843 491.581726,238.710541 481.928955,236.648056 
	C482.662323,233.631500 483.395660,230.614990 484.200348,227.192047 
z"/>
<path fill="#04B9E0" opacity="1.000000" stroke="none" 
	d="
M479.630280,210.567184 
	C471.852478,210.566650 464.528961,210.676193 457.211487,210.512955 
	C454.242249,210.446732 452.683167,211.317810 451.974701,214.387680 
	C450.978241,218.705521 449.464264,222.903931 447.965546,227.830719 
	C458.511353,227.830719 468.677429,227.830719 478.827271,227.830719 
	C478.894592,236.389481 478.079590,237.245453 470.452911,237.245712 
	C461.467926,237.246017 452.482697,237.288300 443.498077,237.230286 
	C438.130371,237.195633 435.874542,235.155075 436.933197,229.831375 
	C438.378143,222.565033 440.210083,215.232422 443.130493,208.469910 
	C444.380646,205.575089 448.685730,202.388260 451.785034,202.190491 
	C463.363739,201.451599 475.017883,201.895111 487.245483,201.895111 
	C485.604126,205.912720 486.987213,211.495850 479.630280,210.567184 
z"/>
<path fill="#FAFAF9" opacity="1.000000" stroke="none" 
	d="
M351.378906,58.010372 
	C349.409576,57.739124 347.690247,56.979065 346.169373,57.267056 
	C325.088531,61.258911 304.036163,65.400925 282.972473,69.483902 
	C281.121155,69.842766 279.239563,70.045212 277.207520,69.818031 
	C288.410309,56.562267 302.420074,48.454723 319.503357,45.926384 
	C330.687561,44.271114 341.391266,45.907024 351.254639,51.655357 
	C352.678680,52.485279 353.669739,54.058117 354.932068,55.642895 
	C353.908997,56.668701 352.815063,57.338776 351.378906,58.010372 
z"/>
<path fill="#03B8E0" opacity="1.000000" stroke="none" 
	d="
M359.109009,237.242584 
	C357.516174,237.148956 356.383881,237.055206 354.541870,236.902695 
	C356.912201,228.176208 359.191925,219.783310 361.649567,210.735352 
	C356.794983,210.735352 352.544006,210.735352 348.340851,210.735352 
	C347.743164,203.231628 348.910522,201.862717 355.412140,201.861572 
	C367.531555,201.859421 379.650970,201.860962 391.829468,201.860962 
	C390.631500,210.561111 390.631500,210.561050 382.860260,210.561325 
	C381.528442,210.561371 380.159485,210.762482 378.871826,210.524109 
	C375.219849,209.848068 373.933655,211.857651 373.116211,214.942474 
	C371.720703,220.208557 369.623077,225.331985 368.698090,230.667496 
	C367.719757,236.311005 364.859497,238.167282 359.109009,237.242584 
z"/>
<path fill="#53473B" opacity="1.000000" stroke="none" 
	d="
M152.050583,209.074722 
	C148.399658,209.811707 144.833389,210.569092 141.323029,210.365005 
	C137.547897,210.145523 136.033905,211.609070 135.164917,215.075241 
	C133.714508,220.860535 131.501953,226.465500 130.235596,232.282516 
	C129.340744,236.392990 127.429642,237.796631 123.429634,237.209961 
	C121.497643,236.926559 119.489685,237.161041 116.567162,237.161041 
	C119.151443,228.146637 121.576332,219.688232 124.179466,210.608063 
	C119.160454,210.608063 114.591362,210.608063 110.010124,210.608063 
	C110.385170,202.302582 110.756088,201.925430 118.042831,201.925171 
	C129.836075,201.924759 141.629318,201.925079 154.133240,201.925079 
	C153.399521,204.433578 152.779678,206.552704 152.050583,209.074722 
z"/>
<path fill="#373738" opacity="1.000000" stroke="none" 
	d="
M309.961792,284.110901 
	C312.254974,284.111053 314.053680,284.111053 316.068726,284.111053 
	C316.068726,280.973450 316.068726,278.253967 316.068726,275.171112 
	C309.604279,275.171112 303.457733,275.293304 297.318420,275.135498 
	C291.598663,274.988495 290.484985,273.578522 290.381622,267.230927 
	C290.268738,260.293945 291.584808,258.382507 297.343292,258.224548 
	C303.498718,258.055695 309.711273,257.901489 315.798645,258.606598 
	C317.580292,258.812988 319.207855,261.858582 320.444244,263.884674 
	C320.669250,264.253357 318.655029,265.988525 317.674500,267.092865 
	C317.561951,266.433014 317.449432,265.773193 317.336884,265.113373 
	C315.571777,264.285004 313.842133,262.847504 312.034973,262.742401 
	C306.593262,262.425964 301.121399,262.628296 295.449829,262.628296 
	C295.449829,265.651459 295.449829,268.079590 295.449829,270.925720 
	C301.795349,270.925720 307.944519,270.809601 314.087189,270.959320 
	C319.903748,271.101074 321.052673,272.600983 321.110718,279.322571 
	C321.174011,286.654083 320.160675,288.208740 314.322266,288.333649 
	C307.499298,288.479675 300.665771,288.321014 293.841339,288.131622 
	C290.381195,288.035583 289.222961,285.413727 289.538605,282.594818 
	C289.680420,281.328308 291.627167,280.263885 293.409607,279.227020 
	C293.660706,283.496735 295.494720,284.556763 298.977417,284.190613 
	C302.438568,283.826691 305.967865,284.110779 309.961792,284.110901 
z"/>
<path fill="#383739" opacity="1.000000" stroke="none" 
	d="
M581.981995,282.493073 
	C583.803406,283.305786 585.587830,284.001160 587.390259,284.051636 
	C592.841431,284.204315 598.299622,284.106781 603.981445,284.106781 
	C603.981445,280.967407 603.981445,278.240387 603.981445,275.151276 
	C597.390015,275.151276 591.082703,275.279602 584.783264,275.111725 
	C579.498169,274.970917 578.167786,273.286011 578.058838,267.432709 
	C577.934021,260.725372 579.300110,258.470551 584.417969,258.292664 
	C590.892273,258.067566 597.414795,257.993317 603.845398,258.603424 
	C605.483093,258.758789 607.169434,261.583099 608.167236,263.523712 
	C608.503235,264.177155 606.776733,265.891083 605.211914,267.183655 
	C604.705750,262.994080 602.624573,262.362488 599.383301,262.550232 
	C594.113953,262.855408 588.813904,262.632507 583.235046,262.632507 
	C583.235046,265.519043 583.235046,267.911407 583.235046,270.890991 
	C589.289307,270.890991 595.231384,270.817047 601.170776,270.910767 
	C607.778625,271.015045 608.926270,272.353333 608.957336,279.512268 
	C608.989441,286.900757 607.943848,288.267548 601.519836,288.400543 
	C595.534180,288.524445 589.536377,288.544159 583.556030,288.306274 
	C577.977112,288.084381 576.981201,286.660095 577.524963,279.107422 
	C579.383667,280.355499 580.668457,281.218170 581.981995,282.493073 
z"/>
<path fill="#343435" opacity="1.000000" stroke="none" 
	d="
M170.795227,288.428101 
	C165.368332,288.430695 160.413910,288.430695 155.210159,288.430695 
	C155.210159,278.301270 155.210159,268.583557 155.210159,257.801147 
	C163.502106,258.223999 171.786163,258.046265 179.863434,259.252808 
	C186.059769,260.178345 190.093277,267.380493 189.684753,274.223907 
	C189.246307,281.568817 184.965866,286.767059 178.210281,287.909729 
	C175.932175,288.295074 173.583908,288.265503 170.795227,288.428101 
M160.032272,272.507935 
	C160.032272,276.277893 160.032272,280.047882 160.032272,283.662140 
	C165.844299,283.662140 171.169800,284.125580 176.375290,283.533539 
	C181.727173,282.924896 184.466705,278.865295 184.432571,273.262146 
	C184.398438,267.656921 181.573761,263.731995 176.133026,263.174530 
	C170.944534,262.642944 165.658875,263.059967 160.032623,263.059967 
	C160.032623,265.929504 160.032623,268.725006 160.032272,272.507935 
z"/>
<path fill="#333234" opacity="1.000000" stroke="none" 
	d="
M415.545624,288.031555 
	C413.928772,288.294891 412.645447,288.294891 411.194702,288.294891 
	C411.194702,278.231415 411.194702,268.620361 411.194702,258.559723 
	C420.308411,258.559723 429.366486,258.462555 438.416443,258.689819 
	C439.479218,258.716492 441.286011,260.449249 441.394501,261.527313 
	C441.790283,265.460419 442.664124,269.878174 441.286438,273.272644 
	C440.343048,275.597168 435.963531,276.527130 432.859589,278.222870 
	C436.018768,280.885315 439.933075,284.184174 444.270630,287.839722 
	C440.126648,288.841522 436.921997,288.946747 434.320038,285.676056 
	C433.195190,284.262146 431.503876,283.304352 430.346802,281.909607 
	C426.750153,277.574524 422.423462,275.513489 415.879120,277.455109 
	C415.879120,280.598877 415.879120,284.183563 415.545624,288.031555 
M423.569092,262.259583 
	C421.147552,262.259583 418.726013,262.259583 416.368042,262.259583 
	C416.368042,266.173248 416.368042,269.395996 416.368042,272.881531 
	C422.130981,272.881531 427.583588,273.108002 432.991943,272.719147 
	C434.311584,272.624237 436.330109,270.665161 436.580505,269.298218 
	C437.640961,263.508636 436.420471,262.312714 430.480804,262.263489 
	C428.495636,262.247040 426.510162,262.259979 423.569092,262.259583 
z"/>
<path fill="#323133" opacity="1.000000" stroke="none" 
	d="
M522.445129,283.683411 
	C530.396057,284.041138 538.026672,284.041138 545.657227,284.041138 
	C545.988098,284.519318 546.318970,284.997528 546.649841,285.475708 
	C545.642700,286.459137 544.657410,288.268585 543.625000,288.295898 
	C534.986267,288.524689 526.338928,288.425964 517.334839,288.425964 
	C517.334839,278.401276 517.334839,268.677307 517.334839,258.170441 
	C526.126587,258.170441 535.047974,258.120758 543.966309,258.263947 
	C544.686584,258.275513 545.385559,259.610718 546.094421,260.330872 
	C545.227722,261.062958 544.385498,262.391266 543.490112,262.428162 
	C538.501282,262.633545 533.499573,262.526031 528.502258,262.525635 
	C526.529175,262.525482 524.556091,262.525635 522.314697,262.525635 
	C522.314697,265.308044 522.314697,267.748016 522.314697,270.695923 
	C526.807495,270.695923 531.381042,270.695923 535.908325,270.695923 
	C536.191833,274.282837 536.191833,274.282837 522.124756,275.096649 
	C522.124756,277.805573 522.124756,280.565613 522.445129,283.683411 
z"/>
<path fill="#353435" opacity="1.000000" stroke="none" 
	d="
M254.346954,258.929138 
	C254.630280,266.755737 254.650421,274.231232 254.714920,281.706329 
	C254.753784,286.211639 252.682388,288.457825 248.065186,288.381866 
	C241.420486,288.272552 234.773407,288.314545 228.127655,288.257721 
	C224.714554,288.228546 222.838211,286.502838 222.822891,283.043579 
	C222.786911,274.924286 222.811371,266.804718 222.811371,258.421051 
	C224.472885,258.421051 225.871780,258.421051 227.646759,258.421051 
	C227.646759,266.923065 227.646759,275.179382 227.646759,283.775818 
	C235.038727,283.775818 242.058914,283.775818 249.494598,283.775818 
	C249.494598,275.325500 249.494598,267.076874 249.494598,258.207245 
	C251.332748,258.355103 252.717590,258.466492 254.346954,258.929138 
z"/>
<path fill="#2C2B2C" opacity="1.000000" stroke="none" 
	d="
M90.102661,270.361877 
	C90.109627,276.467010 90.109627,282.115662 90.109627,287.764313 
	C89.728783,288.142944 89.347939,288.521606 88.967094,288.900238 
	C87.848831,287.844330 85.792053,286.815857 85.760292,285.728210 
	C85.498451,276.762787 85.612312,267.786407 85.612312,257.281525 
	C88.010429,258.698334 89.653717,259.366028 90.920120,260.467133 
	C98.527298,267.081451 106.047935,273.795258 114.500092,281.274384 
	C114.500092,273.971069 114.597244,267.916077 114.459618,261.866394 
	C114.389488,258.783936 115.311424,257.418030 118.803009,258.631531 
	C118.803009,268.297546 118.803009,278.048187 118.803009,288.983795 
	C116.805420,287.876678 115.077095,287.263184 113.784386,286.145721 
	C106.107460,279.509705 98.531387,272.756989 90.095695,265.315033 
	C90.095695,267.287292 90.095695,268.596313 90.102661,270.361877 
z"/>
<path fill="#464547" opacity="1.000000" stroke="none" 
	d="
M369.208557,263.222778 
	C368.866943,271.571655 368.866943,279.562653 368.866943,288.077393 
	C367.062256,288.255493 365.518280,288.407867 363.403778,288.616516 
	C363.403778,279.966553 363.403778,271.729095 363.403778,262.694061 
	C359.650543,262.694061 356.375183,262.926086 353.160767,262.584595 
	C351.795471,262.439545 350.557861,261.092468 349.262238,260.291656 
	C350.622101,259.548340 351.969421,258.189209 353.343903,258.161163 
	C362.667358,257.971008 371.996521,258.061768 381.861603,258.061768 
	C382.014557,259.466034 382.159485,260.796783 382.384735,262.864899 
	C377.765320,262.864899 373.657715,262.864899 369.208557,263.222778 
z"/>
<path fill="#06B7DD" opacity="1.000000" stroke="none" 
	d="
M294.179413,97.331345 
	C293.837189,103.436905 293.160828,109.606514 292.260254,116.055557 
	C288.649994,117.593773 285.263977,118.852547 280.655701,120.565712 
	C282.648468,113.187103 283.938324,106.571548 286.410980,100.432396 
	C287.107697,98.702576 291.271637,98.369240 294.179413,97.331345 
z"/>
<path fill="#323133" opacity="1.000000" stroke="none" 
	d="
M46.358597,288.395721 
	C45.557194,287.761353 44.802704,287.150330 44.797665,286.533173 
	C44.722115,277.282867 44.745369,268.031738 44.745369,258.747284 
	C48.232395,257.519958 49.949188,257.986633 49.852436,261.972717 
	C49.667725,269.582581 49.745823,277.200806 49.836159,284.814148 
	C49.863110,287.085358 49.695465,288.845123 46.358597,288.395721 
z"/>
<path fill="#323233" opacity="1.000000" stroke="none" 
	d="
M481.022156,287.304626 
	C479.553192,287.997040 478.177307,288.267181 476.042236,288.686432 
	C476.042236,278.826324 475.931244,269.582520 476.211548,260.350555 
	C476.240051,259.413269 478.624115,258.547485 481.115265,256.812714 
	C481.115265,268.016449 481.115265,277.449402 481.022156,287.304626 
z"/>
<path fill="#433426" opacity="1.000000" stroke="none" 
	d="
M251.867035,209.309189 
	C252.229172,209.165833 252.505997,209.344666 252.888214,209.750412 
	C252.589645,209.862000 252.185669,209.746704 251.867035,209.309189 
z"/>
<path fill="#ECEAE9" opacity="1.000000" stroke="none" 
	d="
M278.024139,223.094208 
	C279.169067,229.910080 273.624268,229.076462 270.181519,229.573837 
	C265.360077,230.270355 260.362762,229.749603 255.487503,229.749603 
	C254.935593,223.395065 255.419739,222.777191 260.819702,222.777557 
	C266.436157,222.777939 272.052612,222.844925 278.024139,223.094208 
z"/>
<path fill="#F7F7F6" opacity="1.000000" stroke="none" 
	d="
M307.690582,218.675049 
	C310.251404,210.388351 310.251404,210.388382 318.730591,210.388519 
	C322.363007,210.388580 325.995392,210.388519 330.768921,210.388519 
	C328.981201,216.381821 327.425262,221.828720 325.653625,227.204529 
	C325.462677,227.783951 324.024536,228.247223 323.156921,228.261078 
	C317.376770,228.353516 311.594452,228.309021 305.037415,228.309021 
	C305.982361,224.898483 306.790070,221.983276 307.690582,218.675049 
z"/>
<path fill="#FAFCFC" opacity="1.000000" stroke="none" 
	d="
M160.032440,272.014221 
	C160.032623,268.725006 160.032623,265.929504 160.032623,263.059967 
	C165.658875,263.059967 170.944534,262.642944 176.133026,263.174530 
	C181.573761,263.731995 184.398438,267.656921 184.432571,273.262146 
	C184.466705,278.865295 181.727173,282.924896 176.375290,283.533539 
	C171.169800,284.125580 165.844299,283.662140 160.032272,283.662140 
	C160.032272,280.047882 160.032272,276.277893 160.032440,272.014221 
z"/>
<path fill="#EFF1F1" opacity="1.000000" stroke="none" 
	d="
M424.046967,262.259521 
	C426.510162,262.259979 428.495636,262.247040 430.480804,262.263489 
	C436.420471,262.312714 437.640961,263.508636 436.580505,269.298218 
	C436.330109,270.665161 434.311584,272.624237 432.991943,272.719147 
	C427.583588,273.108002 422.130981,272.881531 416.368042,272.881531 
	C416.368042,269.395996 416.368042,266.173248 416.368042,262.259583 
	C418.726013,262.259583 421.147552,262.259583 424.046967,262.259521 
z"/>
</svg>